<svg id="Objects" xmlns="http://www.w3.org/2000/svg" viewBox="0 0 35.02 11.48"><defs><style>.cls-1{fill:#bce026;}.cls-2{fill:#8bc700;}.cls-3{fill:#5fb43b;}</style></defs><title>cao1</title><path class="cls-1" d="M447.11,315.5s1-6.47,1.26-8.49a32.11,32.11,0,0,1,.22,8.49h-1.48Z" transform="translate(-447.11 -305.41)"/><path class="cls-2" d="M474.25,316.89s1-6.47,1.26-8.49a32.11,32.11,0,0,1,.22,8.49h-1.48Z" transform="translate(-447.11 -305.41)"/><path class="cls-2" d="M456.22,314.44s0.29-5.18,1.35-7.27c0,0-.1,4.44.1,7.27h-1.45Z" transform="translate(-447.11 -305.41)"/><path class="cls-2" d="M467.77,315.91S468,308.85,469,306c0,0-.09,6.05.09,9.91h-1.29Z" transform="translate(-447.11 -305.41)"/><path class="cls-2" d="M479.77,315.3a23.18,23.18,0,0,0,.26-8.23s1.23,2.77.77,8.23h-1Z" transform="translate(-447.11 -305.41)"/><path class="cls-3" d="M470.54,305.48a41.28,41.28,0,0,1-.6,6.53,16.39,16.39,0,0,0-.5,3.75h-1a20.42,20.42,0,0,1,.81-5.32A33.62,33.62,0,0,0,470.54,305.48Z" transform="translate(-447.11 -305.41)"/><path class="cls-3" d="M462.86,315.32s-0.26-7.06-1.23-9.91c0,0,.09,6.05-0.09,9.91h1.31Z" transform="translate(-447.11 -305.41)"/><path class="cls-3" d="M456.54,315.55s-0.26-7.06-1.23-9.91c0,0,.09,6.05-0.09,9.91h1.31Z" transform="translate(-447.11 -305.41)"/><path class="cls-3" d="M482.12,314.22a19.09,19.09,0,0,1-.23-7s-1.09,2.36-.68,7h0.91Z" transform="translate(-447.11 -305.41)"/></svg>