<svg xmlns="http://www.w3.org/2000/svg" viewBox="0 0 46.55 47.06"><defs><style>.cls-1{isolation:isolate;}.cls-2{fill:#1cb753;}.cls-3{fill:#fff;opacity:0.3;mix-blend-mode:soft-light;}</style></defs><title>cao2</title><g class="cls-1"><g id="objects"><path class="cls-2" d="M371.68,233a6,6,0,0,1-6,6,5.84,5.84,0,0,1-.64,0,6,6,0,0,1-9.22,7.38v3.86H342V246.9a6,6,0,0,1-9.07-7.49,6,6,0,0,1-3.46-11.35h0a6,6,0,0,1,2.26-11.65,6,6,0,0,1,1.47.19,6,6,0,0,1,9.66-7.17c0-.06,0-0.12,0-0.19a6,6,0,0,1,6-6H349a6,6,0,0,1,6,6,6,6,0,0,1,9.8,7,5.93,5.93,0,0,1,1.47-.19,6,6,0,0,1,2.24,11.65A6,6,0,0,1,371.68,233Z" transform="translate(-325.69 -203.19)"/><path class="cls-3" d="M349,203.19v47.06h-7V246.9a6,6,0,0,1-9.07-7.49,6,6,0,0,1-3.46-11.35h0a6,6,0,0,1,2.26-11.65,6,6,0,0,1,1.47.19,6,6,0,0,1,9.66-7.17c0-.06,0-0.12,0-0.19a6,6,0,0,1,6-6H349Z" transform="translate(-325.69 -203.19)"/></g></g></svg>