<svg xmlns="http://www.w3.org/2000/svg" viewBox="0 0 86.42 46.58"><defs><style>.cls-1{isolation:isolate;}.cls-2{fill:#1cb753;}.cls-3{fill:#fff;opacity:0.3;mix-blend-mode:soft-light;}</style></defs><title>cao3</title><g class="cls-1"><g id="objects"><path class="cls-2" d="M154.43,452.11c0,1.22-5.2,2.41-13.26,2.79l-4,.12c-1,0-1.94,0-2.95,0h-52v0C73.94,454.79,68,453.9,68,452.7c0-.74,2.19-1.47,5.81-2.07-3.58-.78-5.75-1.62-5.69-2.36s2.33-1.24,6-1.46c-3.49-1.15-5.56-2.2-5.43-2.94s2.45-1,6.11-.84c-3.35-1.49-5.3-2.76-5.09-3.47s2.54-.74,6.16-0.21c-3.18-1.83-5-3.29-4.71-4s2.59-.48,6.14.42c-3-2.15-4.62-3.78-4.28-4.44s2.63-.21,6.08,1.05c-2.74-2.43-4.22-4.24-3.8-4.85s2.63,0.07,5.93,1.67c-2.48-2.7-3.76-4.65-3.29-5.21s2.62,0.33,5.73,2.27c-2.19-2.94-3.26-5-2.74-5.53s2.57,0.61,5.47,2.85c-1.87-3.15-2.73-5.32-2.15-5.78s2.49,0.86,5.15,3.38c-1.54-3.33-2.18-5.56-1.55-6s2.39,1.11,4.78,3.89c-1.19-3.47-1.6-5.76-.93-6.09s2.27,1.35,4.35,4.36c-0.83-3.57-1-5.89-.3-6.16s2.12,1.57,3.88,4.79c-0.46-3.64-.39-6,0.33-6.16s1.94,1.78,3.37,5.16c-0.08-3.67.22-6,1-6.09s1.75,2,2.83,5.47c0.29-3.65.83-5.92,1.57-6s1.55,2.14,2.25,5.73c0.08-.46.17-0.89,0.26-1.3,0.6-2.82,1.27-4.48,1.92-4.46s1.32,2.29,1.65,5.94c1-3.52,2-5.62,2.76-5.52s1.07,2.41,1,6.07c1.38-3.39,2.59-5.38,3.3-5.2s0.82,2.5.41,6.14c1.72-3.23,3.12-5.09,3.82-4.83s0.56,2.57-.22,6.16c2-3,3.63-4.75,4.3-4.42s0.3,2.62-.85,6.1c2.34-2.82,4.09-4.34,4.72-4s0,2.63-1.47,6c2.62-2.56,4.52-3.91,5.1-3.46s-0.25,2.63-2.07,5.81c2.86-2.28,4.89-3.43,5.43-2.91s-0.51,2.59-2.65,5.55c3.09-2,5.21-2.9,5.7-2.34s-0.77,2.52-3.21,5.26c3.27-1.64,5.49-2.36,5.91-1.74s-1,2.43-3.73,4.9c3.43-1.3,5.7-1.78,6.05-1.13s-1.27,2.31-4.21,4.49c3.54-.95,5.85-1.19,6.14-0.5s-1.5,2.17-4.65,4c3.61-.58,5.94-0.59,6.16.13s-1.72,2-5,3.54c3.66-.21,6,0,6.11.75s-1.91,1.82-5.37,3c3.65,0.17,5.93.63,6,1.38s-2.09,1.61-5.65,2.44C152.22,450.67,154.44,451.37,154.43,452.11Z" transform="translate(-68.01 -408.44)"/><path class="cls-3" d="M111.22,412.9V455h-29v0C73.94,454.79,68,453.9,68,452.7c0-.74,2.19-1.47,5.81-2.07-3.58-.78-5.75-1.62-5.69-2.36s2.33-1.24,6-1.46c-3.49-1.15-5.56-2.2-5.43-2.94s2.45-1,6.11-.84c-3.35-1.49-5.3-2.76-5.09-3.47s2.54-.74,6.16-0.21c-3.18-1.83-5-3.29-4.71-4s2.59-.48,6.14.42c-3-2.15-4.62-3.78-4.28-4.44s2.63-.21,6.08,1.05c-2.74-2.43-4.22-4.24-3.8-4.85s2.63,0.07,5.93,1.67c-2.48-2.7-3.76-4.65-3.29-5.21s2.62,0.33,5.73,2.27c-2.19-2.94-3.26-5-2.74-5.53s2.57,0.61,5.47,2.85c-1.87-3.15-2.73-5.32-2.15-5.78s2.49,0.86,5.15,3.38c-1.54-3.33-2.18-5.56-1.55-6s2.39,1.11,4.78,3.89c-1.19-3.47-1.6-5.76-.93-6.09s2.27,1.35,4.35,4.36c-0.83-3.57-1-5.89-.3-6.16s2.12,1.57,3.88,4.79c-0.46-3.64-.39-6,0.33-6.16s1.94,1.78,3.37,5.16c-0.08-3.67.22-6,1-6.09s1.75,2,2.83,5.47c0.29-3.65.83-5.92,1.57-6s1.55,2.14,2.25,5.73C111,413.75,111.13,413.31,111.22,412.9Z" transform="translate(-68.01 -408.44)"/></g></g></svg>