<svg id="objects" xmlns="http://www.w3.org/2000/svg" viewBox="0 0 35.89 17.86"><defs><style>.cls-1{fill:#1cb753;}</style></defs><title>cao4</title><path class="cls-1" d="M235.27,659.76s7.18-7.52,6.53-16.29c0,0,2.75,8.83-1,16.21Z" transform="translate(-218.02 -643.46)"/><path class="cls-1" d="M239.52,659.76s7.83-4.43,8.07-13.23c0,0,1.22,5.77-2.51,13.15Z" transform="translate(-218.02 -643.46)"/><path class="cls-1" d="M243.65,660.17s5.13-5.21,10.26-6.45c0,0-6.13,3.41-4.7,6.36Z" transform="translate(-218.02 -643.46)"/><path class="cls-1" d="M236.66,660s-7.18-7.52-6.53-16.29c0,0-2.75,8.83,1,16.21Z" transform="translate(-218.02 -643.46)"/><path class="cls-1" d="M232.41,660s-7.83-4.43-8.07-13.24c0,0-1.22,5.77,2.51,13.15Z" transform="translate(-218.02 -643.46)"/><path class="cls-1" d="M228.28,660.44S223.15,655.23,218,654c0,0,6.13,3.41,4.7,6.36Z" transform="translate(-218.02 -643.46)"/><path class="cls-1" d="M234.34,658.94s-0.49-7.69,1.79-13.65c0,0,1.85,8.7,1.3,13.81S234.34,658.94,234.34,658.94Z" transform="translate(-218.02 -643.46)"/></svg>