<svg id="Layer_1" data-name="Layer 1" xmlns="http://www.w3.org/2000/svg" viewBox="0 0 55.53 29.35"><defs><style>.cls-1{fill:#003018;}</style></defs><title>cao5</title><path class="cls-1" d="M298.25,343.81l0.78,0.52-0.88.32a5.34,5.34,0,0,0-3.6,4.52h55.53a5.34,5.34,0,0,0-3.6-4.52l-0.88-.32,0.78-.52a5.54,5.54,0,0,0-3.83-10.1l-0.93.13,0.45-.83a5.55,5.55,0,0,0-8.09-7.16l-0.77.54v-0.94a5.55,5.55,0,0,0-10.49-2.58l-0.43.84-0.43-.84a5.54,5.54,0,0,0-10.49,2.58v0.94l-0.77-.54a5.54,5.54,0,0,0-8.08,7.16l0.45,0.83-0.93-.13A5.54,5.54,0,0,0,298.25,343.81Z" transform="translate(-294.55 -319.82)"/></svg>