<svg id="Object" xmlns="http://www.w3.org/2000/svg" viewBox="0 0 59.03 69.11"><defs><style>.cls-1{fill:#fff;}.cls-2{fill:#985f35;}.cls-3{fill:#6b3f23;}.cls-4{fill:#e89e6c;}.cls-5{fill:#ce8748;}.cls-6{fill:#26cad3;}.cls-7{fill:#80dae0;}.cls-8{fill:#633c20;}.cls-9{fill:#f9be00;}</style></defs><title>fangzi1</title><circle class="cls-1" cx="38.29" cy="16.89" r="2.96"/><circle class="cls-1" cx="44.31" cy="11.51" r="4.39"/><circle class="cls-1" cx="40.33" cy="11.32" r="5.46"/><circle class="cls-1" cx="46.88" cy="6.19" r="6.19"/><circle class="cls-1" cx="51.93" cy="8.7" r="7.1"/><rect class="cls-2" x="3.9" y="39.76" width="41.69" height="29.36"/><rect class="cls-3" x="3.9" y="43.22" width="41.69" height="0.66"/><rect class="cls-3" x="3.9" y="47.51" width="41.69" height="0.66"/><rect class="cls-3" x="3.9" y="51.8" width="41.69" height="0.66"/><rect class="cls-3" x="3.9" y="56.08" width="41.69" height="0.66"/><rect class="cls-3" x="3.9" y="60.37" width="41.69" height="0.66"/><rect class="cls-3" x="3.9" y="64.66" width="41.69" height="0.66"/><polygon class="cls-2" points="0 37.01 6.05 27.22 43.43 27.22 49.48 37.01 0 37.01"/><polygon class="cls-2" points="43.43 27.22 6.05 27.22 2.75 39.76 46.73 39.76 43.43 27.22"/><circle class="cls-4" cx="2.75" cy="37.01" r="2.75"/><circle class="cls-5" cx="2.75" cy="37.01" r="1.48"/><circle class="cls-4" cx="8.25" cy="37.01" r="2.75"/><circle class="cls-5" cx="8.25" cy="37.01" r="1.48"/><circle class="cls-4" cx="13.74" cy="37.01" r="2.75"/><circle class="cls-5" cx="13.74" cy="37.01" r="1.48"/><circle class="cls-4" cx="19.24" cy="37.01" r="2.75"/><circle class="cls-5" cx="19.24" cy="37.01" r="1.48"/><circle class="cls-4" cx="24.74" cy="37.01" r="2.75"/><circle class="cls-5" cx="24.74" cy="37.01" r="1.48"/><circle class="cls-4" cx="30.24" cy="37.01" r="2.75"/><circle class="cls-5" cx="30.24" cy="37.01" r="1.48"/><circle class="cls-4" cx="35.73" cy="37.01" r="2.75"/><circle class="cls-5" cx="35.73" cy="37.01" r="1.48"/><circle class="cls-4" cx="41.23" cy="37.01" r="2.75"/><circle class="cls-5" cx="41.23" cy="37.01" r="1.48"/><circle class="cls-4" cx="46.73" cy="37.01" r="2.75"/><circle class="cls-5" cx="46.73" cy="37.01" r="1.48"/><rect class="cls-4" x="34.99" y="18.31" width="6.24" height="0.81"/><path class="cls-3" d="M349.92,222.11v10.44a2.51,2.51,0,1,0,5,0V222.11h-5Z" transform="translate(-314.31 -203)"/><rect class="cls-6" x="34.7" y="48.88" width="6.82" height="6.82"/><rect class="cls-7" x="38.11" y="48.88" width="3.41" height="3.41"/><path class="cls-3" d="M348.19,251.05v8.47h8.47v-8.47h-8.47Zm3.93,7.64H349v-3.1h3.11v3.1Zm0-3.7H349v-3.11h3.11V255Zm3.71,3.7h-3.11v-3.1h3.11v3.1Zm0-3.7h-3.11v-3.11h3.11V255Z" transform="translate(-314.31 -203)"/><rect class="cls-8" x="19.57" y="53.11" width="12.31" height="16"/><rect class="cls-3" x="20.23" y="53.77" width="11" height="15.34"/><circle class="cls-9" cx="29.09" cy="62.35" r="0.65"/><rect class="cls-6" x="8.86" y="48.88" width="6.82" height="6.82"/><rect class="cls-7" x="12.26" y="48.88" width="3.41" height="3.41"/><path class="cls-3" d="M322.34,251.05v8.47h8.47v-8.47h-8.47Zm3.93,7.64h-3.11v-3.1h3.11v3.1Zm0-3.7h-3.11v-3.11h3.11V255Zm3.71,3.7h-3.11v-3.1H330v3.1Zm0-3.7h-3.11v-3.11H330V255Z" transform="translate(-314.31 -203)"/></svg>