<svg id="Layer_1" data-name="Layer 1" xmlns="http://www.w3.org/2000/svg" viewBox="0 0 347.21 31.71"><defs><style>.cls-1{fill:#fff;}.cls-2{fill:#c9f2ff;}.cls-3{fill:#06c;}.cls-4{fill:#3cf;}</style></defs><title>haishui2</title><path class="cls-1" d="M41.67,386.84a12,12,0,0,0,0,24.08V386.84Z" transform="translate(-29.63 -379.21)"/><path class="cls-2" d="M40.9,379.21c3.86,0,3.86,3.75,7.73,3.75s3.86-3.75,7.73-3.75S60.22,383,64.08,383s3.86-3.75,7.73-3.75S75.67,383,79.53,383s3.86-3.75,7.73-3.75S91.13,383,95,383s3.86-3.75,7.73-3.75,3.86,3.75,7.73,3.75,3.86-3.75,7.73-3.75S122,383,125.9,383s3.86-3.75,7.73-3.75,3.87,3.75,7.73,3.75,3.86-3.75,7.73-3.75S153,383,156.82,383s3.86-3.75,7.73-3.75,3.86,3.75,7.73,3.75,3.86-3.75,7.72-3.75,3.86,3.75,7.73,3.75,3.86-3.75,7.73-3.75,3.86,3.75,7.73,3.75,3.86-3.75,7.73-3.75,3.86,3.75,7.73,3.75,3.86-3.75,7.73-3.75,3.87,3.75,7.73,3.75,3.87-3.75,7.73-3.75,3.87,3.75,7.73,3.75,3.87-3.75,7.73-3.75S261.15,383,265,383s3.87-3.75,7.73-3.75,3.87,3.75,7.73,3.75,3.87-3.75,7.73-3.75,3.87,3.75,7.73,3.75,3.87-3.75,7.73-3.75,3.86,3.75,7.73,3.75,3.87-3.75,7.73-3.75S323,383,326.86,383s3.87-3.75,7.73-3.75,3.87,3.75,7.74,3.75,3.87-3.75,7.73-3.75,3.87,3.75,7.74,3.75,3.87-3.75,7.74-3.75v22.05H40.9V379.21Z" transform="translate(-29.63 -379.21)"/><path class="cls-3" d="M40.65,381.94c3.87,0,3.87,3.75,7.74,3.75s3.87-3.75,7.74-3.75,3.87,3.75,7.74,3.75,3.87-3.75,7.74-3.75,3.87,3.75,7.74,3.75,3.87-3.75,7.74-3.75,3.87,3.75,7.74,3.75,3.87-3.75,7.74-3.75,3.87,3.75,7.74,3.75,3.87-3.75,7.74-3.75,3.87,3.75,7.74,3.75,3.87-3.75,7.74-3.75,3.87,3.75,7.74,3.75,3.87-3.75,7.74-3.75,3.87,3.75,7.74,3.75,3.87-3.75,7.74-3.75,3.87,3.75,7.74,3.75,3.87-3.75,7.74-3.75,3.87,3.75,7.74,3.75,3.87-3.75,7.74-3.75,3.87,3.75,7.74,3.75,3.87-3.75,7.74-3.75,3.87,3.75,7.74,3.75,3.87-3.75,7.74-3.75,3.87,3.75,7.74,3.75,3.87-3.75,7.74-3.75,3.87,3.75,7.74,3.75,3.87-3.75,7.74-3.75,3.87,3.75,7.74,3.75,3.87-3.75,7.74-3.75,3.87,3.75,7.74,3.75,3.87-3.75,7.74-3.75,3.87,3.75,7.75,3.75,3.87-3.75,7.74-3.75,3.87,3.75,7.74,3.75,3.87-3.75,7.74-3.75,3.87,3.75,7.74,3.75,3.87-3.75,7.74-3.75,3.87,3.75,7.75,3.75,3.87-3.75,7.74-3.75,3.87,3.75,7.75,3.75,3.87-3.75,7.75-3.75v5l-4.58,16.61L47.29,404l-6.64-17.08v-5Z" transform="translate(-29.63 -379.21)"/><path class="cls-1" d="M364.79,387h0c-2.91.58-3.25,3.65-6.76,3.65-3.87,0-3.87-3.75-7.75-3.75s-3.87,3.75-7.74,3.75-3.87-3.75-7.75-3.75-3.87,3.75-7.74,3.75-3.87-3.75-7.74-3.75-3.87,3.75-7.74,3.75-3.87-3.75-7.74-3.75-3.87,3.75-7.74,3.75-3.87-3.75-7.75-3.75-3.87,3.75-7.74,3.75-3.87-3.75-7.74-3.75-3.87,3.75-7.74,3.75-3.87-3.75-7.74-3.75-3.87,3.75-7.74,3.75-3.87-3.75-7.74-3.75-3.87,3.75-7.74,3.75-3.87-3.75-7.74-3.75a4.4,4.4,0,0,0-2.31.59c-1.8,1.06-2.53,3.16-5.43,3.16-3.87,0-3.87-3.75-7.74-3.75s-3.87,3.75-7.74,3.75-3.87-3.75-7.74-3.75-3.87,3.75-7.74,3.75-3.87-3.75-7.74-3.75-3.87,3.75-7.74,3.75-3.87-3.75-7.74-3.75-3.87,3.75-7.74,3.75-3.87-3.75-7.74-3.75-3.87,3.75-7.74,3.75-3.87-3.75-7.74-3.75-3.87,3.75-7.74,3.75-3.87-3.75-7.74-3.75-3.87,3.75-7.74,3.75-3.87-3.75-7.74-3.75-3.87,3.75-7.74,3.75-3.87-3.75-7.74-3.75-3.87,3.75-7.74,3.75-3.87-3.75-7.74-3.75-3.87,3.75-7.74,3.75-3.87-3.75-7.74-3.75-3.87,3.75-7.74,3.75-3.87-3.75-7.74-3.75v14.7H364.79v9.31a12,12,0,0,0,12-12C376.83,392.23,372.25,386.06,364.79,387Z" transform="translate(-29.63 -379.21)"/><path class="cls-4" d="M218.66,394.54c-3.87,0-3.87-3.75-7.74-3.75s-3.87,3.75-7.74,3.75-3.87-3.75-7.74-3.75-3.87,3.75-7.74,3.75-3.87-3.75-7.74-3.75-3.87,3.75-7.74,3.75-3.87-3.75-7.74-3.75-3.87,3.75-7.74,3.75-3.87-3.75-7.74-3.75-3.87,3.75-7.74,3.75-3.87-3.75-7.74-3.75-3.87,3.75-7.74,3.75-3.87-3.75-7.74-3.75-3.87,3.75-7.74,3.75-3.87-3.75-7.74-3.75-3.87,3.75-7.74,3.75-3.87-3.75-7.74-3.75-3.87,3.75-7.74,3.75-3.87-3.75-7.74-3.75-3.87,3.75-7.74,3.75-3.87-3.75-7.74-3.75-3.87,3.75-7.74,3.75-3.87-3.75-7.74-3.75h0a10.06,10.06,0,0,0,0,20.13H224.09V391.39C222.28,392.45,221.55,394.54,218.66,394.54Z" transform="translate(-29.63 -379.21)"/><path class="cls-4" d="M375.84,400.86a10.06,10.06,0,0,0-10.06-10.06h0c-3.88,0-3.88,3.75-7.75,3.75s-3.87-3.75-7.75-3.75-3.87,3.75-7.74,3.75-3.87-3.75-7.75-3.75-3.87,3.75-7.74,3.75-3.87-3.75-7.74-3.75-3.87,3.75-7.74,3.75-3.87-3.75-7.74-3.75-3.87,3.75-7.74,3.75-3.87-3.75-7.75-3.75-3.87,3.75-7.74,3.75-3.87-3.75-7.74-3.75-3.87,3.75-7.74,3.75-3.87-3.75-7.74-3.75-3.87,3.75-7.74,3.75-3.87-3.75-7.74-3.75-3.87,3.75-7.74,3.75-3.87-3.75-7.74-3.75a4.4,4.4,0,0,0-2.31.6l-1.28,19.53h143A10.06,10.06,0,0,0,375.84,400.86Z" transform="translate(-29.63 -379.21)"/></svg>