<svg id="Layer_1" data-name="Layer 1" xmlns="http://www.w3.org/2000/svg" viewBox="0 0 150 66.33"><defs><style>.cls-1{fill:#71caf3;}.cls-2,.cls-8{fill:#fff;}.cls-3{fill:#53a3da;}.cls-4{fill:#4abbec;}.cls-5{fill:#3db4e8;}.cls-6{fill:#50c2f1;}.cls-7{fill:#d6eefb;}.cls-8{fill-opacity:0.42;}</style></defs><title>haishui</title><g id="layer1"><rect id="rect5022" class="cls-1" width="150" height="66.33"/><path id="path5233" class="cls-2" d="M0.13,101.52S25,105.94,37.5,105.94s25-4.42,37.5-4.42,25,2.95,37.5,2.95,37.23-2.95,37.23-2.95v43.6H0.13v-43.6Z" transform="translate(0 -83.67)"/><path id="rect5229" class="cls-3" d="M0,102.42s25,3.48,37.5,3.48,25-3.48,37.5-3.48,25,2.14,37.5,2.14,37.5-2.14,37.5-2.14V150H0V102.42Z" transform="translate(0 -83.67)"/><path id="rect5024" class="cls-4" d="M8.93,87.46H139.3c1.79,0,3.25,1,3.25,2.14h0c0,1.18-1.45,2.14-3.25,2.14H8.93c-1.79,0-3.25-1-3.25-2.14h0C5.68,88.42,7.13,87.46,8.93,87.46Z" transform="translate(0 -83.67)"/><path id="rect5026" class="cls-5" d="M43.27,92.18h86a2.14,2.14,0,0,1,2.14,2.14h0a2.14,2.14,0,0,1-2.14,2.14h-86a2.14,2.14,0,0,1-2.14-2.14h0A2.14,2.14,0,0,1,43.27,92.18Z" transform="translate(0 -83.67)"/><path id="rect5028" class="cls-6" d="M45,96.11H107.2A1.87,1.87,0,0,1,109.07,98h0a1.87,1.87,0,0,1-1.87,1.87H45A1.87,1.87,0,0,1,43.15,98h0A1.88,1.88,0,0,1,45,96.11Z" transform="translate(0 -83.67)"/><rect id="rect5030" class="cls-7" x="0.87" y="12.22" width="103.12" height="1.61" rx="0.67" ry="0.67"/><path id="rect5032" class="cls-7" d="M149.26,99.11H79.35a0.54,0.54,0,0,0-.54.54h0a0.54,0.54,0,0,0,.54.54h69.91a0.54,0.54,0,0,0,.54-0.54h0A0.54,0.54,0,0,0,149.26,99.11Z" transform="translate(0 -83.67)"/><rect id="rect5034" class="cls-7" x="30.06" y="17.58" width="8.57" height="1.61" rx="0.67" ry="0.67"/><rect id="rect5036" class="cls-7" x="105.18" y="9.37" width="13.08" height="1.65" rx="0.75" ry="0.75"/><path id="path5257" class="cls-8" d="M0.13,102.68s25.41,6,37.91,6,24.46-6,37-6,25,2.95,37.5,2.95,37.23-2.95,37.23-2.95v3.64c-25.33.25-51.44-1.53-68.35-2-13.13-.35-70.82,6.84-81.25.08v-1.74Z" transform="translate(0 -83.67)"/><rect id="rect5259" class="cls-7" x="23.37" y="8.61" width="4.78" height="1.61" rx="0.22" ry="0.22"/><path id="path5936" class="cls-2" d="M94.32,111.5a0.93,0.93,0,1,0,.93.93A0.93,0.93,0,0,0,94.32,111.5Zm0.15,0.21a0.29,0.29,0,0,1,.29.29h0a0.29,0.29,0,0,1-.29.29h0A0.29,0.29,0,0,1,94.47,111.71Z" transform="translate(0 -83.67)"/><path id="path5938" class="cls-2" d="M92.28,107.47a0.7,0.7,0,1,0,.7.7A0.7,0.7,0,0,0,92.28,107.47Zm0.11,0.15a0.22,0.22,0,0,1,.22.22h0a0.22,0.22,0,0,1-.22.22h0A0.22,0.22,0,0,1,92.4,107.63Z" transform="translate(0 -83.67)"/><path id="path6439" class="cls-2" d="M6.46,112.89a0.93,0.93,0,1,1-.93.93A0.93,0.93,0,0,1,6.46,112.89Zm-0.15.21a0.29,0.29,0,0,0-.29.29H6a0.29,0.29,0,0,0,.29.29h0A0.29,0.29,0,0,0,6.31,113.09Z" transform="translate(0 -83.67)"/><path id="path6441" class="cls-2" d="M8.5,108.86a0.7,0.7,0,1,1-.7.7A0.7,0.7,0,0,1,8.5,108.86ZM8.39,109a0.22,0.22,0,0,0-.22.22h0a0.22,0.22,0,0,0,.22.22h0A0.22,0.22,0,1,0,8.39,109Z" transform="translate(0 -83.67)"/><path id="path6847" class="cls-2" d="M120.69,128.86a0.78,0.78,0,1,0,.78.78A0.78,0.78,0,0,0,120.69,128.86Zm0.13,0.17a0.24,0.24,0,0,1,.24.24h0a0.24,0.24,0,0,1-.24.24h0A0.24,0.24,0,0,1,120.82,129Z" transform="translate(0 -83.67)"/><path id="path6849" class="cls-2" d="M124.71,131.67a0.78,0.78,0,1,0,.78.78A0.78,0.78,0,0,0,124.71,131.67Zm0.13,0.17a0.24,0.24,0,0,1,.24.24h0a0.24,0.24,0,0,1-.24.24h0A0.24,0.24,0,0,1,124.84,131.85Z" transform="translate(0 -83.67)"/><path id="path6851" class="cls-2" d="M133,122a0.38,0.38,0,1,0,0,.76h0a0.38,0.38,0,0,0,.38-0.38h0A0.38,0.38,0,0,0,133,122Zm0.06,0.08a0.12,0.12,0,0,1,0,.24h0A0.12,0.12,0,1,1,133.07,122.12Z" transform="translate(0 -83.67)"/><path id="path6853" class="cls-2" d="M134.57,124.16a0.48,0.48,0,1,0,.48.48A0.48,0.48,0,0,0,134.57,124.16Zm0.08,0.11a0.15,0.15,0,1,1,0,.3h0A0.15,0.15,0,1,1,134.65,124.27Z" transform="translate(0 -83.67)"/><path id="path6857" class="cls-2" d="M48.91,120.54a1,1,0,1,0,1,1A1,1,0,0,0,48.91,120.54Zm0.16,0.22a0.3,0.3,0,0,1,0,.61h0a0.3,0.3,0,0,1-.3-0.3h0A0.3,0.3,0,0,1,49.07,120.76Z" transform="translate(0 -83.67)"/><path id="path7544" class="cls-2" d="M41.76,111.48a1.45,1.45,0,1,0,1.45,1.45A1.45,1.45,0,0,0,41.76,111.48ZM42,111.8a0.45,0.45,0,1,1,0,.9h0A0.45,0.45,0,1,1,42,111.8Z" transform="translate(0 -83.67)"/><path id="path7548" class="cls-2" d="M32.85,134.36a0.85,0.85,0,1,0,.85.85A0.85,0.85,0,0,0,32.85,134.36ZM33,134.55a0.26,0.26,0,0,1,0,.53h0a0.26,0.26,0,0,1-.26-0.26h0A0.26,0.26,0,0,1,33,134.55Z" transform="translate(0 -83.67)"/><path id="path7771" class="cls-2" d="M88,94.28c1.78-4.61,3.67-2.46,3.51-1.95C91.17,93.44,88,94.28,88,94.28Z" transform="translate(0 -83.67)"/><path id="path7773" class="cls-2" d="M72.31,100c-0.91-2.37-1.89-1.26-1.8-1C70.7,99.55,72.31,100,72.31,100Z" transform="translate(0 -83.67)"/><path id="path7775" class="cls-2" d="M69.39,100.73c-1.3-1-1.49-.1-1.36,0A2.28,2.28,0,0,0,69.39,100.73Z" transform="translate(0 -83.67)"/><path id="path7777" class="cls-2" d="M87.29,100.68c1.8-1.46,2.07-.14,1.88,0C88.76,101.07,87.29,100.68,87.29,100.68Z" transform="translate(0 -83.67)"/><path id="path5416" class="cls-2" d="M78.91,104.09c-7.86,1.66,4,1.09,8.43.63,1.26,0.43-9.39,2-13.54,1.11S78.91,104.09,78.91,104.09Z" transform="translate(0 -83.67)"/><path id="path5418" class="cls-2" d="M76.66,104.11c-18.95,2.83,9.43,3.58,13.94,1-1.14,1.23-15.53,3.34-22.4,1.83S76.66,104.11,76.66,104.11Z" transform="translate(0 -83.67)"/><path id="path6029" class="cls-2" d="M84.18,97.24C84,93.38,86,94.31,86.06,94.73,86.16,95.64,84.18,97.24,84.18,97.24Z" transform="translate(0 -83.67)"/></g></svg>