<svg id="Layer_1" data-name="Layer 1" xmlns="http://www.w3.org/2000/svg" viewBox="0 0 142.05 91.15"><defs><style>.cls-1{fill:#854f68;}.cls-2{fill:#530123;}.cls-3{fill:#fff;}.cls-4{fill:#ff6c00;}.cls-5{fill:#fce803;}</style></defs><title>shan3</title><polygon class="cls-1" points="142.05 91.15 0 91.15 57.22 2.04 79.25 2.04 142.05 91.15"/><polygon class="cls-2" points="66.99 91.15 142.05 91.15 79.25 2.04 66.99 2.04 66.99 91.15"/><path class="cls-3" d="M40.91,0.31V-7.16H37.43L27.76,7.9V21.35a3.18,3.18,0,0,0,3.18,3.18H31a3.18,3.18,0,0,0,3.18-3.18V11.88a1.6,1.6,0,0,1,1.6-1.6h0a1.6,1.6,0,0,1,1.6,1.6V38a6.32,6.32,0,0,0,6.32,6.32h0.13A6.32,6.32,0,0,0,50.18,38V15.18a1.26,1.26,0,0,1,1.26-1.26h0a1.26,1.26,0,0,1,1.26,1.26v6.28a3.92,3.92,0,0,0,3.92,3.92h0.08a3.92,3.92,0,0,0,3.92-3.92V13.13A4.15,4.15,0,0,1,64.8,9h6L59.46-7.16h-0.9v5.23H53.92V-7.16H46.3V0.31H40.91Z" transform="translate(19.79 9.2)"/><path class="cls-4" d="M42.86,5.7v6.08A2.14,2.14,0,0,0,45,13.92h0a2.15,2.15,0,0,0,2.15-2.15V7.49a2.74,2.74,0,0,1,2.74-2.74H50a2.74,2.74,0,0,1,2.74,2.74V8.71a2.07,2.07,0,0,0,2.07,2.07h0a2.07,2.07,0,0,0,2.07-2.07V-0.14a0.93,0.93,0,0,1,.88-1H57.58a1,1,0,0,1,1,1V1.66A2.44,2.44,0,0,0,61,4.1h0a2.44,2.44,0,0,0,2.44-2.44V-1.43l-4-5.73h-22L34.11-2h2.61V1.28A4.41,4.41,0,0,0,41.14,5.7h1.72Z" transform="translate(19.79 9.2)"/><rect class="cls-5" x="57.27" width="21.98" height="2.1"/></svg>