<svg id="Layer_1" data-name="Layer 1" xmlns="http://www.w3.org/2000/svg" viewBox="0 0 101.47 36.26"><defs><style>.cls-1{fill:#41b035;}.cls-2{fill:#f0f9fd;}.cls-3{fill:#198035;}.cls-4{fill:#004562;fill-opacity:0.18;}</style></defs><title>shan1</title><g id="layer1"><g id="g4999"><path id="path4993" class="cls-1" d="M26.83,67.25l22.88-21L69.4,67.52Z" transform="translate(-25.79 -31.83)"/><path id="path4995" class="cls-1" d="M42.46,67.82L76.41,32.08l33.54,36Z" transform="translate(-25.79 -31.83)"/><path id="path4997" class="cls-1" d="M84.69,67.25l22.88-21,19.69,21.26Z" transform="translate(-25.79 -31.83)"/></g><path id="path5012" class="cls-2" d="M76.48,32L68,40.85l4.42-.33,2.08,4.82,2.28-4.22,4.42,4.49,0.87-4.55L86.59,43Z" transform="translate(-25.79 -31.83)"/><path id="path5014" class="cls-2" d="M45,50.53l4.87-4.59,5.16,5.83-1.47-.27,0.27,2.88L50.9,52l-2.54,2.54-1-2.34-2.75.67Z" transform="translate(-25.79 -31.83)"/><path id="path5040" class="cls-3" d="M28.34,65.93L42,54.75l1.33,6.06L49.18,57,55,60.43l8.52-8s5.11,8.33,5.87,8.33,5.87-5.11,5.87-5.11l7,3.41,4-6.06s12.5,9.28,12.31,8.52A32.54,32.54,0,0,1,99,56.65l13.45,5.49,1.7-5.11,6.44,3.22,6.06,6.63H28Z" transform="translate(-25.79 -31.83)"/><path id="path5016" class="cls-2" d="M102.13,51.43L107.75,46,114,53.1l-3.62-2.28-0.6,2.75-1.94-2.21-1.74,2.88-3-2.54-1.27,1.67Z" transform="translate(-25.79 -31.83)"/><path id="path5042" class="cls-4" d="M28.34,66.12l21.4-20.17,2.37,19.89,5.78,0.47L56.28,53,76.64,31.83,79,66.4l26,0.19,2.75-20.83,18.94,20.93-1.61,1.14H25.79Z" transform="translate(-25.79 -31.83)"/></g></svg>