<svg xmlns="http://www.w3.org/2000/svg" viewBox="0 0 62.25 151.51"><defs><style>.cls-1{isolation:isolate;}.cls-2{fill:#1aa874;}.cls-3{fill:#fff;opacity:0.3;mix-blend-mode:soft-light;}.cls-4{fill:#856037;}</style></defs><title>shu17</title><g class="cls-1"><g id="objects"><polygon class="cls-2" points="31.89 0 8.83 68.99 31.89 68.99 54.96 68.99 31.89 0"/><polygon class="cls-3" points="31.89 0 31.89 68.99 8.83 68.99 31.89 0"/><polygon class="cls-2" points="11.4 71.52 0 96.31 11.4 96.31 22.8 96.31 11.4 71.52"/><polygon class="cls-3" points="11.4 71.52 11.4 96.31 0 96.31 11.4 71.52"/><rect class="cls-4" x="28.69" y="68.83" width="6.34" height="82.68"/><path class="cls-4" d="M176.19,420c-11.06,0-16.41-5.93-19-10.92a26.94,26.94,0,0,1-2.8-10.8l4.53-.06c0,0.71.49,17.26,17.23,17.26h0.2l0,4.53h-0.24Z" transform="translate(-145.3 -301.96)"/><polygon class="cls-2" points="50.85 76.61 62.25 110.71 50.85 110.71 39.45 110.71 50.85 76.61"/><polygon class="cls-3" points="50.85 76.61 50.85 110.71 62.25 110.71 50.85 76.61"/><path class="cls-4" d="M176.66,434.41h-0.24l0-4.53h0.2c16.75,0,17.22-16.55,17.23-17.26l4.53,0.06a26.93,26.93,0,0,1-2.8,10.8C193.06,428.49,187.71,434.41,176.66,434.41Z" transform="translate(-145.3 -301.96)"/></g></g></svg>