<svg xmlns="http://www.w3.org/2000/svg" viewBox="0 0 65.97 170.28"><defs><style>.cls-1{isolation:isolate;}.cls-2{fill:#856037;}.cls-3{fill:#14803a;}.cls-4{fill:#fff;opacity:0.3;mix-blend-mode:soft-light;}</style></defs><title>shu18</title><g class="cls-1"><g id="objects"><rect class="cls-2" x="29.4" y="159.53" width="7.26" height="10.74"/><path class="cls-3" d="M284.26,423V357.52c-1.55,4.67-7,18.71-13,34.23S256.12,420,252.07,422.47C245.48,426.47,280.08,423.46,284.26,423Z" transform="translate(-251.13 -261.89)"/><path class="cls-3" d="M279.19,293.78c2.35-.21,4.4-0.45,5-0.52V261.9c-1.12,4.12-7.67,27.51-13.49,31.34C268.7,294.52,274.54,294.2,279.19,293.78Z" transform="translate(-251.13 -261.89)"/><path class="cls-3" d="M274.7,322.43c4.37-.42,8.7-1.07,9.56-1.2V274.41c-0.51,1.92-2.27,8.34-4.69,15.89-3.85,12-9.37,26.75-14.3,30.9C263,323.16,268.85,323,274.7,322.43Z" transform="translate(-251.13 -261.89)"/><path class="cls-3" d="M284.26,352V297.67c-1.21,3.65-5.43,16.18-10.14,28.31s-10,24-13.14,25.93C255.83,355,281,352.32,284.26,352Z" transform="translate(-251.13 -261.89)"/><path class="cls-3" d="M284.26,385.85V325.54c-1.39,4.19-6.24,18.57-11.64,32.5s-13.07,24.86-16.7,27.06C250,388.68,280.51,386.27,284.26,385.85Z" transform="translate(-251.13 -261.89)"/><path class="cls-3" d="M289.14,293.77c-2.35-.21-4.4-0.45-5-0.52V261.89c1.12,4.12,7.67,27.51,13.49,31.34C299.63,294.51,293.79,294.19,289.14,293.77Z" transform="translate(-251.13 -261.89)"/><path class="cls-3" d="M293.73,322.43c-4.37-.42-8.7-1.07-9.56-1.2V274.41c0.51,1.92,2.27,8.34,4.69,15.89,3.85,12,9.37,26.75,14.3,30.9C305.47,323.16,299.58,323,293.73,322.43Z" transform="translate(-251.13 -261.89)"/><path class="cls-3" d="M284.16,352V297.67c1.21,3.65,5.43,16.18,10.14,28.31s10,24,13.15,25.93C312.59,355,287.43,352.32,284.16,352Z" transform="translate(-251.13 -261.89)"/><path class="cls-3" d="M284.16,385.85V325.54c1.39,4.19,6.24,18.57,11.64,32.5s12.74,25.47,16.37,27.67C318.08,389.3,287.92,386.27,284.16,385.85Z" transform="translate(-251.13 -261.89)"/><path class="cls-3" d="M284.16,423V357.52c1.55,4.67,7,18.71,13,34.23s15.08,28.82,19.12,31.27C322.85,427,288.35,423.46,284.16,423Z" transform="translate(-251.13 -261.89)"/><path class="cls-4" d="M270.66,293.24c-1.85,1.21,3.18,1,7.64.62-3.75,11.18-8.69,23.61-13.14,27.36-2.32,2,3.58,1.78,9.43,1.22l0.82-.08q-0.69,1.82-1.39,3.64c-4.74,12.22-10,24-13.14,25.93s5.77,1.61,13.61,1c-0.64,1.71-1.3,3.43-2,5.15-5.44,14-13.07,24.86-16.7,27.06s8.22,2.56,17.21,1.83q-0.91,2.41-1.85,4.84C265.11,407.41,256,420,252,422.49c-6.59,4,28,1,32.19.52V261.91C283,266,276.49,289.42,270.66,293.24Z" transform="translate(-251.13 -261.89)"/></g></g></svg>