<svg id="Layer_1" data-name="Layer 1" xmlns="http://www.w3.org/2000/svg" viewBox="0 0 16.28 11.46"><defs><style>.cls-1{fill:#79b52a;}.cls-2{fill:#ca6c33;}.cls-3{fill:#86c123;}.cls-4{fill:#9bc816;}.cls-5{fill:#ba612c;}.cls-6{fill:#9c4f24;}.cls-7{fill:#a6cc0b;}</style></defs><title>shu1</title><g id="layer1"><g id="g5989"><g id="g5964"><path id="path5946" class="cls-1" d="M19.66,70.93c-2.43-.2-4.16,3.42-4.22,4.1l-0.05.68L17.52,75l-0.06-1.09,0.79,0.21,1.07-1.51-0.06-.74Z" transform="translate(-11.69 -66.58)"/><path id="path5948" class="cls-1" d="M19.35,70.93c2.43-.2,4.16,3.42,4.22,4.1l0.05,0.68L21.49,75l0.06-1.09-0.79.21-1.07-1.51,0.06-.74Z" transform="translate(-11.69 -66.58)"/><path id="path5940" class="cls-2" d="M19.31,77.77c-0.31-1.05-.06-6.6-0.06-6.6l0.64-.11,1.46,6.77Z" transform="translate(-11.69 -66.58)"/><path id="path5942" class="cls-3" d="M19.87,71.24c-5.42-3.46-7.7.31-8,1.31a2.09,2.09,0,0,0-.13,1.36l2.06-.74L14,72l0.61,0.92,2.23-.48L17,71.72l1.18,0.52Z" transform="translate(-11.69 -66.58)"/><path id="path5944" class="cls-4" d="M19.42,71.19c3.81-5.18,7.29-2.49,7.94-1.67A2.09,2.09,0,0,1,28,70.74l-2.19,0-0.61-1-0.24,1.08-2.25.36-0.43-.63-0.91.92Z" transform="translate(-11.69 -66.58)"/><path id="path5950" class="cls-4" d="M20.21,71.55c-1.58-6.23-5.81-5.05-6.73-4.53a2.09,2.09,0,0,0-1,.9l2,0.87,0.94-.68L15.22,69.2l2,1.18L17.81,70l0.5,1.19Z" transform="translate(-11.69 -66.58)"/><path id="path5952" class="cls-5" d="M19.31,77.77c-0.31-1.05-.06-6.6-0.06-6.6l0.36-.11,0.69,6.77Z" transform="translate(-11.69 -66.58)"/><path id="path5954" class="cls-6" d="M19.71,73.3l0.63-.17,0.1,0.39Z" transform="translate(-11.69 -66.58)"/><path id="path5956" class="cls-6" d="M20,74.82l0.63-.17L20.74,75Z" transform="translate(-11.69 -66.58)"/><path id="path5958" class="cls-6" d="M20.32,76.34L21,76.17l0.1,0.39Z" transform="translate(-11.69 -66.58)"/><path id="path5960" class="cls-6" d="M20.6,77.62l0.63-.17,0.1,0.39Z" transform="translate(-11.69 -66.58)"/><path id="path5962" class="cls-6" d="M19.45,71.84L20,71.67l0.09,0.39Z" transform="translate(-11.69 -66.58)"/></g><g id="g5984"><path id="path5978" class="cls-7" d="M20.17,78c-0.83-1.14-1.44-.93-1.44-0.93a1.19,1.19,0,0,1,1.57.63Z" transform="translate(-11.69 -66.58)"/><path id="path5980" class="cls-7" d="M20.17,78c0.83-1.14,1.44-.93,1.44-0.93a1.19,1.19,0,0,0-1.57.63Z" transform="translate(-11.69 -66.58)"/><path id="path5982" class="cls-7" d="M20.17,78c0.83-1.14.67-1.6,0.67-1.6-0.6-.16-0.38.53-0.79,1.3Z" transform="translate(-11.69 -66.58)"/></g></g></g></svg>