<svg xmlns="http://www.w3.org/2000/svg" viewBox="0 0 47.83 102.45"><defs><style>.cls-1{isolation:isolate;}.cls-2{fill:#8bad1b;}.cls-3{fill:#fff;opacity:0.3;mix-blend-mode:soft-light;}.cls-4{fill:#856037;}.cls-5{fill:#84ab00;}</style></defs><title>shu19</title><g class="cls-1"><g id="objects"><path class="cls-2" d="M245.48,589.69c-1.53,2.6-3.33,3.09-4.72,2.27s-1.84-2.63-.31-5.23,5.84-4.19,5.84-4.19S247,587.09,245.48,589.69Z" transform="translate(-211.35 -530.33)"/><path class="cls-3" d="M246.3,582.55L240.76,592c-1.39-.82-1.84-2.63-0.31-5.23S246.3,582.55,246.3,582.55Z" transform="translate(-211.35 -530.33)"/><path class="cls-2" d="M242.26,595.16c-1.82-1.07-2.16-2.33-1.59-3.3s1.84-1.29,3.66-.22,2.93,4.09,2.93,4.09S244.08,596.23,242.26,595.16Z" transform="translate(-211.35 -530.33)"/><path class="cls-3" d="M247.26,595.73l-6.59-3.87c0.57-1,1.84-1.29,3.66-.22S247.26,595.73,247.26,595.73Z" transform="translate(-211.35 -530.33)"/><path class="cls-2" d="M224.61,595.67c1.53,2.6,3.33,3.09,4.72,2.27s1.84-2.63.31-5.23-5.84-4.19-5.84-4.19S223.08,593.07,224.61,595.67Z" transform="translate(-211.35 -530.33)"/><path class="cls-3" d="M223.79,588.52l5.53,9.42c1.39-.82,1.84-2.63.31-5.23S223.79,588.52,223.79,588.52Z" transform="translate(-211.35 -530.33)"/><path class="cls-2" d="M227.83,601.13c1.82-1.07,2.16-2.33,1.59-3.3s-1.84-1.29-3.66-.22-2.93,4.09-2.93,4.09S226,602.2,227.83,601.13Z" transform="translate(-211.35 -530.33)"/><path class="cls-3" d="M222.83,601.7l6.59-3.87c-0.57-1-1.84-1.29-3.66-.22S222.83,601.7,222.83,601.7Z" transform="translate(-211.35 -530.33)"/><rect class="cls-4" x="22.04" y="43.67" width="3.74" height="58.78"/><path class="cls-4" d="M236.9,597.6l4-6.26s-2.81,7.66-3.79,9.28" transform="translate(-211.35 -530.33)"/><path class="cls-4" d="M234.1,605.22l-5.07-7.9s3.54,9.66,4.78,11.72" transform="translate(-211.35 -530.33)"/><ellipse class="cls-5" cx="23.91" cy="23.92" rx="23.92" ry="23.92"/><path class="cls-3" d="M235.26,530.33v47.84A23.92,23.92,0,0,1,235.26,530.33Z" transform="translate(-211.35 -530.33)"/></g></g></svg>