<svg id="Object" xmlns="http://www.w3.org/2000/svg" viewBox="0 0 31.87 46.95"><defs><style>.cls-1{fill:#985f35;}.cls-2{fill:#a0e3e6;}.cls-3{fill:#00b2bb;}</style></defs><title>shu13</title><rect class="cls-1" x="13.53" y="30.07" width="4.81" height="16.87"/><path class="cls-1" d="M621.8,257.44a0.66,0.66,0,0,1-.47-1.13l6.26-6.26a0.66,0.66,0,0,1,.94.94l-6.26,6.26A0.66,0.66,0,0,1,621.8,257.44Z" transform="translate(-604.53 -219.56)"/><path class="cls-1" d="M619.14,261.22a0.66,0.66,0,0,1-.47-0.19l-4.6-4.6a0.66,0.66,0,1,1,.94-0.94l4.6,4.6A0.66,0.66,0,0,1,619.14,261.22Z" transform="translate(-604.53 -219.56)"/><circle class="cls-2" cx="15.94" cy="15.94" r="15.94"/><path class="cls-3" d="M620.47,219.56v31.87A15.94,15.94,0,1,0,620.47,219.56Z" transform="translate(-604.53 -219.56)"/></svg>