<svg xmlns="http://www.w3.org/2000/svg" viewBox="0 0 92.65 116.63"><defs><style>.cls-1{isolation:isolate;}.cls-2{fill:#9d7241;}.cls-3{fill:#1cb753;}.cls-4{fill:#fff;opacity:0.3;mix-blend-mode:soft-light;}</style></defs><title>shu14</title><g class="cls-1"><g id="objects"><polygon class="cls-2" points="13.47 60.68 39.94 82.66 39.32 74.39 14.22 59.18 13.47 60.68"/><polygon class="cls-2" points="72.99 76.83 46.52 98.81 47.14 90.54 72.24 75.33 72.99 76.83"/><polygon class="cls-2" points="48.29 116.63 38.15 116.63 40.32 38.52 45.77 38.52 48.29 116.63"/><circle class="cls-3" cx="43.22" cy="27.06" r="27.06"/><circle class="cls-3" cx="11.78" cy="56.74" r="11.78"/><circle class="cls-3" cx="73.97" cy="72.8" r="18.67"/><path class="cls-4" d="M135.23,130.78V184.9A27.06,27.06,0,1,1,135.23,130.78Z" transform="translate(-92.01 -130.78)"/><path class="cls-4" d="M103.79,175.73V199.3A11.78,11.78,0,0,1,103.79,175.73Z" transform="translate(-92.01 -130.78)"/><path class="cls-4" d="M166,184.9v37.35A18.67,18.67,0,0,1,166,184.9Z" transform="translate(-92.01 -130.78)"/></g></g></svg>