<svg id="Objects" xmlns="http://www.w3.org/2000/svg" viewBox="0 0 77 132.38"><defs><style>.cls-1{fill:none;stroke:#875028;stroke-linecap:round;stroke-linejoin:round;stroke-width:4px;}.cls-2{fill:#5fb43b;}.cls-3{fill:#67c23f;}.cls-4{fill:#875028;}.cls-5{fill:#bce026;}.cls-6{fill:#c5eb27;}</style></defs><title>shu10</title><path class="cls-1" d="M396,592.6H380.12a2.49,2.49,0,0,1-2.49-2.48V573.39" transform="translate(-357.29 -525.47)"/><ellipse class="cls-2" cx="17.77" cy="42.96" rx="17.77" ry="17.2"/><circle class="cls-3" cx="16.14" cy="41.86" r="13.18"/><rect class="cls-4" x="37.69" y="41.23" width="4.19" height="91.15"/><ellipse class="cls-5" cx="48.03" cy="28.04" rx="28.97" ry="28.04"/><circle class="cls-6" cx="51.5" cy="24.54" r="20.16"/><path class="cls-1" d="M395.41,622.06H384.2a3.76,3.76,0,0,1-3.76-3.76v-8.38" transform="translate(-357.29 -525.47)"/><ellipse class="cls-5" cx="23.04" cy="81.83" rx="7.29" ry="7.04"/><circle class="cls-6" cx="22.2" cy="80.94" r="4.57"/><path class="cls-1" d="M398.66,608h14.91a3.88,3.88,0,0,0,3.88-3.88V589.88" transform="translate(-357.29 -525.47)"/><ellipse class="cls-2" cx="59.59" cy="59.77" rx="14.49" ry="13.98"/><circle class="cls-3" cx="60.38" cy="58.5" r="10.31"/></svg>