<svg xmlns="http://www.w3.org/2000/svg" viewBox="0 0 54.89 106.68"><defs><style>.cls-1{isolation:isolate;}.cls-2{fill:#856037;}.cls-3{fill:#668400;}.cls-4{fill:#fff;opacity:0.3;mix-blend-mode:soft-light;}.cls-5{fill:none;stroke:#856037;stroke-miterlimit:10;stroke-width:3px;}</style></defs><title>shu15</title><g class="cls-1"><g id="objects"><rect class="cls-2" x="24.1" y="81.94" width="6.02" height="24.74"/><path class="cls-3" d="M400.11,144.48l-0.11.14-0.12-.14s-27.33,29.37-27.33,53.71,14.34,29.92,27.33,29.92h0.23c13,0,27.33-5.59,27.33-29.92S400.11,144.48,400.11,144.48Z" transform="translate(-372.55 -144.48)"/><path class="cls-4" d="M400,144.62l-0.12-.14s-27.33,29.37-27.33,53.71,14.34,29.92,27.33,29.92H400V144.62Z" transform="translate(-372.55 -144.48)"/><path class="cls-5" d="M401.54,239.13c0.5,0,8.42-.33,10.58-4" transform="translate(-372.55 -144.48)"/><path class="cls-3" d="M420.68,229.36h0v0s-6.84-1.63-9.94.59-2.18,5-.71,7.06v0c1.47,2.05,3.81,3.81,6.91,1.58S420.68,229.36,420.68,229.36Z" transform="translate(-372.55 -144.48)"/><path class="cls-4" d="M420.65,229.36v0s-6.84-1.63-9.94.59-2.18,5-.71,7.06v0Z" transform="translate(-372.55 -144.48)"/></g></g></svg>