<svg id="Layer_1" data-name="Layer 1" xmlns="http://www.w3.org/2000/svg" viewBox="0 0 59.91 91.93"><defs><style>.cls-1{fill:#063;}.cls-2{fill:#009542;}.cls-3{fill:#28ad4b;}.cls-4{fill:#23ba82;}.cls-5{fill:#005229;}.cls-6{fill:#008038;}.cls-7{fill:#208c3d;}.cls-8{fill:#079662;}</style></defs><title>shu26</title><polygon class="cls-1" points="0 91.93 29.95 40.05 59.91 91.93 0 91.93"/><polygon class="cls-2" points="0 75.82 29.95 23.94 59.91 75.82 0 75.82"/><polygon class="cls-3" points="3.28 58.09 29.95 11.9 56.62 58.09 3.28 58.09"/><polygon class="cls-4" points="6.35 40.88 29.95 0 53.55 40.88 6.35 40.88"/><polygon class="cls-5" points="59.91 91.93 29.95 40.05 29.95 91.93 59.91 91.93"/><polygon class="cls-6" points="59.91 75.82 29.95 23.94 29.95 75.82 59.91 75.82"/><polygon class="cls-7" points="56.62 58.09 29.95 11.9 29.95 58.09 56.62 58.09"/><polygon class="cls-8" points="53.55 40.88 29.95 0 29.95 40.88 53.55 40.88"/><polygon class="cls-6" points="22.53 52.55 24.73 48.74 26.93 52.55 22.53 52.55"/><polygon class="cls-6" points="14.13 47.18 16.33 43.37 18.53 47.18 14.13 47.18"/><polygon class="cls-3" points="36.85 52.55 34.65 48.74 32.45 52.55 36.85 52.55"/><polygon class="cls-3" points="45.25 47.18 43.05 43.37 40.85 47.18 45.25 47.18"/><polygon class="cls-2" points="23.45 36.97 25.64 33.16 27.85 36.97 23.45 36.97"/><polygon class="cls-2" points="17.92 28.34 20.12 24.53 22.32 28.34 17.92 28.34"/><polygon class="cls-2" points="23.45 20.28 25.64 16.47 27.85 20.28 23.45 20.28"/><polygon class="cls-1" points="37.18 36.3 34.98 32.49 32.78 36.3 37.18 36.3"/><polygon class="cls-1" points="42.7 27.68 40.5 23.86 38.3 27.68 42.7 27.68"/><polygon class="cls-1" points="37.18 19.62 34.98 15.81 32.78 19.62 37.18 19.62"/><polygon class="cls-1" points="13.84 70.03 16.04 66.22 18.24 70.03 13.84 70.03"/><polygon class="cls-1" points="38.3 70.03 40.5 66.22 42.7 70.03 38.3 70.03"/></svg>