<svg id="Layer_1" data-name="Layer 1" xmlns="http://www.w3.org/2000/svg" viewBox="0 0 26.02 29.66"><defs><style>.cls-1{fill:#ffd000;}.cls-2{fill:#f99d21;}.cls-3{fill:#ff6c38;}.cls-4{fill:#ba3200;}.cls-5{fill:#db460f;}.cls-6{fill:#992900;}.cls-7{fill:#f8622c;}.cls-8{fill:#db3b00;}.cls-9{fill:#bf3300;}</style></defs><title>shu21</title><rect class="cls-1" x="6.33" y="15.3" width="2.59" height="14.35"/><rect class="cls-2" x="20.31" y="18.29" width="1.69" height="9.07"/><path class="cls-3" d="M224.48,100.61c-2.68,0-4.86,2.61-4.86,5.83,0,0.17,0,.33,0,0.5h4.82v-6.33Z" transform="translate(-203.32 -92.24)"/><path class="cls-4" d="M229.29,106.94c0-.17,0-0.33,0-0.5,0-3.22-2.18-5.83-4.86-5.83v6.33h4.82Z" transform="translate(-203.32 -92.24)"/><path class="cls-5" d="M219.66,106.94h0a6.57,6.57,0,0,0,.94,3l0,0.05a5.44,5.44,0,0,0,.54.72l0.14,0.14a5.12,5.12,0,0,0,.55.51c0.09,0.07.19,0.13,0.29,0.19a4.56,4.56,0,0,0,.5.31,4.1,4.1,0,0,0,.5.18,3.77,3.77,0,0,0,.38.13,4,4,0,0,0,1,.12v-5.33h-4.82Z" transform="translate(-203.32 -92.24)"/><path class="cls-6" d="M229.29,106.94h-4.82v5.33a4,4,0,0,0,1-.12,3.85,3.85,0,0,0,.38-0.13,4.1,4.1,0,0,0,.5-0.18,4.65,4.65,0,0,0,.5-0.31c0.1-.06.2-0.12,0.29-0.19a5,5,0,0,0,.55-0.51l0.14-.14a5.53,5.53,0,0,0,.54-0.72l0-.05A6.57,6.57,0,0,0,229.29,106.94Z" transform="translate(-203.32 -92.24)"/><path class="cls-7" d="M211,102.38V92.24c-4.25,0-7.7,4.49-7.7,10a11.65,11.65,0,0,0,2.29,7.12,11.64,11.64,0,0,1-2.28-7H211Z" transform="translate(-203.32 -92.24)"/><path class="cls-8" d="M218.71,102.38a11.64,11.64,0,0,1-2.28,7,11.65,11.65,0,0,0,2.29-7.12c0-5.53-3.45-10-7.7-10v10.15h7.7Z" transform="translate(-203.32 -92.24)"/><path class="cls-5" d="M203.32,102.38a11.64,11.64,0,0,0,2.28,7l0,0c0.17,0.21.34,0.42,0.52,0.61l0.08,0.08c0.17,0.17.33,0.34,0.51,0.49l0.13,0.1c0.16,0.14.33,0.27,0.5,0.39l0.2,0.13c0.16,0.1.31,0.2,0.47,0.29l0.29,0.14c0.14,0.07.27,0.14,0.41,0.19l0.38,0.13,0.36,0.12c0.15,0,.3.06,0.45,0.09l0.31,0.06a6.12,6.12,0,0,0,.78.05v-9.89h-7.7Z" transform="translate(-203.32 -92.24)"/><path class="cls-9" d="M216.43,109.38a11.64,11.64,0,0,0,2.28-7H211v9.89a6.14,6.14,0,0,0,.78-0.05l0.31-.06c0.15,0,.3-0.05.45-0.09l0.36-.12,0.38-.13c0.14-.06.27-0.13,0.41-0.19l0.29-.14c0.16-.09.31-0.19,0.47-0.29l0.2-.12c0.17-.12.34-0.26,0.5-0.39l0.13-.1c0.18-.15.34-0.32,0.51-0.49l0.08-.08c0.18-.19.35-0.39,0.51-0.6Z" transform="translate(-203.32 -92.24)"/></svg>