<svg id="Layer_1" data-name="Layer 1" xmlns="http://www.w3.org/2000/svg" viewBox="0 0 32.91 54.1"><defs><style>.cls-1{fill:#006158;}.cls-2{fill:#004a43;}.cls-3{fill:#008276;}.cls-4{fill:#006e64;}.cls-5{fill:#009c8d;}.cls-6{fill:#00bba9;}.cls-7{fill:#008579;}.cls-8{fill:#003d37;}</style></defs><title>shu23</title><polygon class="cls-1" points="0 54.1 16.45 25.6 32.91 54.1 0 54.1"/><polygon class="cls-2" points="32.91 54.1 16.45 25.6 16.45 54.1 32.91 54.1"/><polygon class="cls-3" points="1.15 40.8 16.45 14.29 31.76 40.8 1.15 40.8"/><polygon class="cls-4" points="31.76 40.8 16.45 14.29 16.45 40.8 31.76 40.8"/><polygon class="cls-5" points="3.57 27.55 16.45 5.23 29.34 27.55 3.57 27.55"/><polygon class="cls-3" points="29.34 27.55 16.45 5.23 16.45 27.55 29.34 27.55"/><polygon class="cls-6" points="6.99 16.39 16.45 0 25.92 16.39 6.99 16.39"/><polygon class="cls-7" points="25.92 16.39 16.45 0 16.45 16.39 25.92 16.39"/><polygon class="cls-8" points="31.33 40.06 31.33 40.07 29.07 37.97 26.81 40.07 24.54 37.97 22.28 40.07 20.02 37.97 20.01 37.97 20.01 37.97 17.75 40.06 15.5 37.97 15.49 37.98 15.48 37.97 13.22 40.07 10.96 37.97 8.7 40.07 6.44 37.97 4.27 39.98 3.8 40.8 12.86 40.8 22.7 40.8 31.76 40.8 31.33 40.06"/><polygon class="cls-4" points="25.91 16.41 25.48 15.67 25.48 15.67 23.21 13.57 20.95 15.67 18.69 13.57 16.43 15.67 14.17 13.57 11.9 15.67 9.64 13.57 7.48 15.58 7 16.41 25.91 16.41"/><polygon class="cls-2" points="28.91 26.8 26.37 24.75 23.88 26.84 21.39 24.75 18.91 26.83 16.44 24.75 16.42 24.76 16.4 24.75 13.93 26.83 11.45 24.75 11.44 24.76 11.42 24.75 9.03 26.75 9 26.8 8.96 26.84 6.47 24.75 3.98 26.84 3.57 27.55 29.32 27.55 29.17 27.25 28.91 26.8"/><polygon class="cls-8" points="29.84 53.25 29.84 53.26 27.58 51.16 25.32 53.26 23.05 51.16 20.79 53.26 18.53 51.16 18.52 51.16 18.52 51.16 16.26 53.25 14.01 51.16 14 51.16 13.99 51.16 11.73 53.26 9.47 51.16 7.21 53.26 4.95 51.16 2.78 53.17 2.31 53.99 11.37 53.99 21.21 53.99 30.27 53.99 29.84 53.25"/></svg>