<svg id="Layer_1" data-name="Layer 1" xmlns="http://www.w3.org/2000/svg" viewBox="0 0 53.38 114.2"><defs><style>.cls-1{fill:#9e7c37;}.cls-2{fill:#1d996b;}.cls-3{fill:#068053;}.cls-4{fill:#056643;}.cls-5{fill:#1c7a35;}.cls-6{fill:#165e29;}.cls-7{fill:#007032;}.cls-8{fill:#004522;}.cls-9{fill:#004724;}.cls-10{fill:#003018;}.cls-11{fill:#23ba82;}.cls-12{fill:#079662;}.cls-13{fill:#28ad4b;}.cls-14{fill:#009542;}.cls-15{fill:#063;}.cls-16{fill:#005229;}</style></defs><title>shu24</title><path class="cls-1" d="M146.49,323.31H143V210.85a1.74,1.74,0,0,1,1.74-1.74h0a1.74,1.74,0,0,1,1.74,1.74V323.31Z" transform="translate(-118.07 -209.12)"/><path class="cls-2" d="M162,239.73h0.06a3.1,3.1,0,0,0,3.1-3.1v-6l-6.26-5.75v11.8A3.1,3.1,0,0,0,162,239.73Z" transform="translate(-118.07 -209.12)"/><path class="cls-3" d="M155.76,234h0.06a3.1,3.1,0,0,0,3.1-3.1v-6l-6.26-5.75v11.8A3.1,3.1,0,0,0,155.76,234Z" transform="translate(-118.07 -209.12)"/><path class="cls-2" d="M149.58,228.25h0.06a3.1,3.1,0,0,0,3.1-3.1v-6l-6.26-5.75v11.8A3.1,3.1,0,0,0,149.58,228.25Z" transform="translate(-118.07 -209.12)"/><path class="cls-4" d="M168.29,260.38h0.06a3.1,3.1,0,0,0,3.1-3.1v-6l-6.26-5.75v11.8A3.1,3.1,0,0,0,168.29,260.38Z" transform="translate(-118.07 -209.12)"/><path class="cls-5" d="M162,254.63h0.06a3.1,3.1,0,0,0,3.1-3.1v-6l-6.26-5.75v11.8A3.1,3.1,0,0,0,162,254.63Z" transform="translate(-118.07 -209.12)"/><path class="cls-4" d="M155.76,248.86h0.06a3.1,3.1,0,0,0,3.1-3.1v-6L152.66,234v11.8A3.1,3.1,0,0,0,155.76,248.86Z" transform="translate(-118.07 -209.12)"/><path class="cls-5" d="M149.58,243.15h0.06a3.1,3.1,0,0,0,3.1-3.1v-6l-6.26-5.75V240A3.1,3.1,0,0,0,149.58,243.15Z" transform="translate(-118.07 -209.12)"/><path class="cls-6" d="M168.29,278h0.06a3.1,3.1,0,0,0,3.1-3.1v-8.18L165.19,261v13.93A3.1,3.1,0,0,0,168.29,278Z" transform="translate(-118.07 -209.12)"/><path class="cls-7" d="M162,272.27h0.06a3.1,3.1,0,0,0,3.1-3.1V261l-6.26-5.75v13.92A3.1,3.1,0,0,0,162,272.27Z" transform="translate(-118.07 -209.12)"/><path class="cls-6" d="M155.76,266.5h0.06a3.1,3.1,0,0,0,3.1-3.1v-8.18l-6.26-5.75V263.4A3.1,3.1,0,0,0,155.76,266.5Z" transform="translate(-118.07 -209.12)"/><path class="cls-7" d="M149.58,260.79h0.06a3.1,3.1,0,0,0,3.1-3.1v-8.18l-6.26-5.75v13.93A3.1,3.1,0,0,0,149.58,260.79Z" transform="translate(-118.07 -209.12)"/><path class="cls-6" d="M168.14,299h0.06a3.1,3.1,0,0,0,3.1-3.1V284L165,278.28v17.58A3.1,3.1,0,0,0,168.14,299Z" transform="translate(-118.07 -209.12)"/><path class="cls-8" d="M161.87,293.2h0.06a3.1,3.1,0,0,0,3.1-3.1V278.27l-6.26-5.75V290.1A3.1,3.1,0,0,0,161.87,293.2Z" transform="translate(-118.07 -209.12)"/><path class="cls-6" d="M155.61,287.43h0.06a3.1,3.1,0,0,0,3.1-3.1V272.5l-6.26-5.75v17.58A3.1,3.1,0,0,0,155.61,287.43Z" transform="translate(-118.07 -209.12)"/><path class="cls-8" d="M149.43,281.72h0.06a3.1,3.1,0,0,0,3.1-3.1V266.79L146.33,261v17.58A3.1,3.1,0,0,0,149.43,281.72Z" transform="translate(-118.07 -209.12)"/><path class="cls-9" d="M168.29,323.1h0.06a3.1,3.1,0,0,0,3.1-3.1V304.22l-6.26-5.75V320A3.1,3.1,0,0,0,168.29,323.1Z" transform="translate(-118.07 -209.12)"/><path class="cls-10" d="M162,317.35h0.06a3.1,3.1,0,0,0,3.1-3.1V298.68l-6.26-5.75v21.31A3.1,3.1,0,0,0,162,317.35Z" transform="translate(-118.07 -209.12)"/><path class="cls-9" d="M155.76,311.58h0.06a3.1,3.1,0,0,0,3.1-3.1V293l-6.26-5.75v21.2A3.1,3.1,0,0,0,155.76,311.58Z" transform="translate(-118.07 -209.12)"/><path class="cls-10" d="M149.58,305.87h0.06a3.1,3.1,0,0,0,3.1-3.1V287.32l-6.26-5.75v21.19A3.1,3.1,0,0,0,149.58,305.87Z" transform="translate(-118.07 -209.12)"/><path class="cls-11" d="M127.49,239.69h-0.06a3.1,3.1,0,0,1-3.1-3.1v-6l6.26-5.75v11.8A3.1,3.1,0,0,1,127.49,239.69Z" transform="translate(-118.07 -209.12)"/><path class="cls-12" d="M133.75,233.92h-0.06a3.1,3.1,0,0,1-3.1-3.1v-6l6.26-5.75v11.8A3.1,3.1,0,0,1,133.75,233.92Z" transform="translate(-118.07 -209.12)"/><path class="cls-11" d="M139.93,228.21h-0.06a3.1,3.1,0,0,1-3.1-3.1v-6l6.26-5.75v11.8A3.1,3.1,0,0,1,139.93,228.21Z" transform="translate(-118.07 -209.12)"/><path class="cls-12" d="M121.23,260.34h-0.06a3.1,3.1,0,0,1-3.1-3.1v-6l6.26-5.75v11.8A3.1,3.1,0,0,1,121.23,260.34Z" transform="translate(-118.07 -209.12)"/><path class="cls-13" d="M127.49,254.59h-0.06a3.1,3.1,0,0,1-3.1-3.1v-6l6.26-5.75v11.8A3.1,3.1,0,0,1,127.49,254.59Z" transform="translate(-118.07 -209.12)"/><path class="cls-12" d="M133.75,248.82h-0.06a3.1,3.1,0,0,1-3.1-3.1v-6l6.26-5.75v11.8A3.1,3.1,0,0,1,133.75,248.82Z" transform="translate(-118.07 -209.12)"/><path class="cls-13" d="M139.93,243.1h-0.06a3.1,3.1,0,0,1-3.1-3.1v-6l6.26-5.75V240A3.1,3.1,0,0,1,139.93,243.1Z" transform="translate(-118.07 -209.12)"/><path class="cls-5" d="M121.23,278h-0.06a3.1,3.1,0,0,1-3.1-3.1V266.7l6.26-5.75v13.93A3.1,3.1,0,0,1,121.23,278Z" transform="translate(-118.07 -209.12)"/><path class="cls-14" d="M127.49,272.23h-0.06a3.1,3.1,0,0,1-3.1-3.1v-8.18l6.26-5.75v13.92A3.1,3.1,0,0,1,127.49,272.23Z" transform="translate(-118.07 -209.12)"/><path class="cls-5" d="M133.75,266.45h-0.06a3.1,3.1,0,0,1-3.1-3.1v-8.18l6.26-5.75v13.93A3.1,3.1,0,0,1,133.75,266.45Z" transform="translate(-118.07 -209.12)"/><path class="cls-14" d="M139.93,260.74h-0.06a3.1,3.1,0,0,1-3.1-3.1v-8.18l6.26-5.75v13.92A3.1,3.1,0,0,1,139.93,260.74Z" transform="translate(-118.07 -209.12)"/><path class="cls-5" d="M121.38,298.91h-0.06a3.1,3.1,0,0,1-3.1-3.1V284l6.26-5.75v17.58A3.1,3.1,0,0,1,121.38,298.91Z" transform="translate(-118.07 -209.12)"/><path class="cls-15" d="M127.64,293.16h-0.06a3.1,3.1,0,0,1-3.1-3.1V278.23l6.26-5.75v17.58A3.1,3.1,0,0,1,127.64,293.16Z" transform="translate(-118.07 -209.12)"/><path class="cls-5" d="M133.9,287.39h-0.06a3.1,3.1,0,0,1-3.1-3.1V272.46l6.26-5.75v17.58A3.1,3.1,0,0,1,133.9,287.39Z" transform="translate(-118.07 -209.12)"/><path class="cls-15" d="M140.08,281.67H140a3.1,3.1,0,0,1-3.1-3.1V266.75l6.26-5.75v17.58A3.1,3.1,0,0,1,140.08,281.67Z" transform="translate(-118.07 -209.12)"/><path class="cls-15" d="M121.23,323.06h-0.06a3.1,3.1,0,0,1-3.1-3.1V304.18l6.26-5.75V320A3.1,3.1,0,0,1,121.23,323.06Z" transform="translate(-118.07 -209.12)"/><path class="cls-16" d="M127.49,317.3h-0.06a3.1,3.1,0,0,1-3.1-3.1V298.64l6.26-5.75v21.31A3.1,3.1,0,0,1,127.49,317.3Z" transform="translate(-118.07 -209.12)"/><path class="cls-15" d="M133.75,311.53h-0.06a3.1,3.1,0,0,1-3.1-3.1V293l6.26-5.75v21.2A3.1,3.1,0,0,1,133.75,311.53Z" transform="translate(-118.07 -209.12)"/><path class="cls-16" d="M139.93,305.82h-0.06a3.1,3.1,0,0,1-3.1-3.1V287.28l6.26-5.75v21.19A3.1,3.1,0,0,1,139.93,305.82Z" transform="translate(-118.07 -209.12)"/></svg>