<svg id="Objects" xmlns="http://www.w3.org/2000/svg" viewBox="0 0 80.83 136.89"><defs><style>.cls-1{fill:#875028;}.cls-2{fill:#945e36;}.cls-3{fill:#5fb43b;}.cls-4{fill:#8bc700;}.cls-5{fill:#bce026;}</style></defs><title>shu5</title><rect class="cls-1" x="34.23" y="95.47" width="12.36" height="41.42"/><rect class="cls-2" x="41.88" y="95.47" width="1.61" height="41.42"/><rect class="cls-2" x="36.78" y="95.47" width="1.61" height="41.42"/><polygon class="cls-3" points="0 118.63 40.41 38.65 80.83 118.63 60.57 98.97 60.57 98.93 60.56 98.95 60.55 98.93 60.55 98.97 50.38 118.63 40.41 98.97 30.45 118.63 20.28 98.97 20.28 98.93 20.27 98.95 20.26 98.93 20.26 98.97 0 118.63"/><polygon class="cls-4" points="6.97 92.83 40.41 20.98 73.86 92.83 57.09 75.17 57.09 75.14 57.09 75.15 57.08 75.14 57.08 75.17 48.66 92.83 40.41 75.17 32.17 92.83 23.75 75.17 23.75 75.14 23.74 75.15 23.74 75.14 23.74 75.17 6.97 92.83"/><polygon class="cls-5" points="19 57.67 40.41 0 61.83 57.67 51.09 43.5 51.09 43.47 51.09 43.48 51.09 43.47 51.09 43.5 45.7 57.67 40.41 43.5 35.13 57.67 29.74 43.5 29.74 43.47 29.74 43.48 29.73 43.47 29.73 43.5 19 57.67"/></svg>