<svg id="Objects" xmlns="http://www.w3.org/2000/svg" viewBox="0 0 86.16 125.32"><defs><style>.cls-1{fill:#875028;}.cls-2{fill:none;stroke:#875028;stroke-linecap:round;stroke-linejoin:round;stroke-width:4px;}.cls-3{fill:#5fb43b;}.cls-4{fill:#67c23f;}.cls-5{fill:#bce026;}.cls-6{fill:#c5eb27;}</style></defs><title>shu9</title><rect class="cls-1" x="43.44" y="27.19" width="3.08" height="98.13"/><path class="cls-2" d="M480.45,395.48H462.8c-1,0-1.82-1.21-1.82-2.71V374.53" transform="translate(-436.5 -322.23)"/><path class="cls-2" d="M482.64,370.07H499.1c0.73,0,1.33-.88,1.33-2V354.84" transform="translate(-436.5 -322.23)"/><path class="cls-3" d="M436.5,375.18a10,10,0,0,0,10,9.89h19.18a10,10,0,0,0,10-9.89v-0.82a10,10,0,0,0-10-9.89H446.51a10,10,0,0,0-10,9.89v0.82Z" transform="translate(-436.5 -322.23)"/><path class="cls-4" d="M439.8,373.34c0,3.37,3,6.11,6.74,6.11h12.92c3.72,0,6.74-2.73,6.74-6.11v-0.51c0-3.37-3-6.11-6.74-6.11H446.54c-3.72,0-6.74,2.73-6.74,6.11v0.51Z" transform="translate(-436.5 -322.23)"/><path class="cls-5" d="M521.72,339.81A16.32,16.32,0,0,1,505.3,356H464.64a16.32,16.32,0,0,1-16.42-16.23v-1.35a16.32,16.32,0,0,1,16.42-16.23H505.3a16.32,16.32,0,0,1,16.42,16.23v1.35Z" transform="translate(-436.5 -322.23)"/><path class="cls-6" d="M516.31,336.79c0,5.53-5,10-11.06,10H474.86c-6.11,0-11.06-4.49-11.06-10V336c0-5.53,5-10,11.06-10h30.39c6.11,0,11.06,4.49,11.06,10v0.83Z" transform="translate(-436.5 -322.23)"/><path class="cls-3" d="M489.66,354.9a8.38,8.38,0,0,0,8.43,8.33h16.15a8.38,8.38,0,0,0,8.43-8.33v-0.69a8.38,8.38,0,0,0-8.43-8.33H498.09a8.38,8.38,0,0,0-8.43,8.33v0.69Z" transform="translate(-436.5 -322.23)"/><path class="cls-4" d="M492.44,353.35a5.43,5.43,0,0,0,5.68,5.14H509a5.43,5.43,0,0,0,5.68-5.14v-0.43a5.43,5.43,0,0,0-5.68-5.14H498.11a5.43,5.43,0,0,0-5.68,5.14v0.43Z" transform="translate(-436.5 -322.23)"/></svg>