<svg id="Layer_1" data-name="Layer 1" xmlns="http://www.w3.org/2000/svg" viewBox="0 0 9.34 7.42"><defs><style>.cls-1{fill:#0d1650;}.cls-2{fill:#fff;}.cls-3{fill:#a4afd8;}.cls-4{fill:#021829;}.cls-5{fill:#3155a5;}.cls-6{fill:#140a08;fill-opacity:0.23;}</style></defs><title>创意岛屿和海洋风景矢量素材_lanrentuku.com</title><g id="layer1"><g id="g11457"><g id="g6859"><g id="g6861"><path id="path6863" class="cls-1" d="M47.47,138.12c0,0.66-.79,1.08-1.77.95a1.86,1.86,0,0,1-1.77-1.44c0-.66,1-1,2-0.82a1.52,1.52,0,0,1,1.56,1.31h0Z" transform="translate(-41.05 -136.77)"/><path id="path6865" class="cls-1" d="M50.27,140.39c0.17,0.73.32,1.44-.64,1.58a1.74,1.74,0,0,1-2-1.08A1.44,1.44,0,0,1,49,139.31C50,139.17,50.11,139.65,50.27,140.39Z" transform="translate(-41.05 -136.77)"/><path id="path6867" class="cls-1" d="M44.07,143.65a0.65,0.65,0,0,1-.85.46,0.92,0.92,0,0,1-.73-0.87,0.76,0.76,0,0,1,.87-0.64,1.11,1.11,0,0,1,.71,1.05h0Z" transform="translate(-41.05 -136.77)"/><path id="path6869" class="cls-1" d="M47.57,143.49a0.7,0.7,0,0,1-.76.69,1,1,0,0,1-1-.66,0.71,0.71,0,0,1,.7-0.78,1.1,1.1,0,0,1,1.07.75h0Z" transform="translate(-41.05 -136.77)"/><ellipse id="ellipse6871" class="cls-2" cx="3.92" cy="4" rx="3.39" ry="2.7"/><rect id="rect6873" class="cls-1" y="3.71" width="1.22" height="1.22" rx="0.48" ry="0.48"/><g id="g6875"><circle id="circle6877" class="cls-3" cx="1.64" cy="2.93" r="0.58"/><circle id="circle6879" class="cls-4" cx="1.59" cy="2.88" r="0.41"/><circle id="circle6881" class="cls-2" cx="1.37" cy="2.65" r="0.19"/></g><path id="path6883" class="cls-5" d="M43.72,138.25v5a4.46,4.46,0,0,0,1.22.18v-5.4A3.83,3.83,0,0,0,43.72,138.25Z" transform="translate(-41.05 -136.77)"/><path id="path6885" class="cls-5" d="M46.71,138.48v4.62a2.54,2.54,0,0,0,1.07-.81v-3A2.52,2.52,0,0,0,46.71,138.48Z" transform="translate(-41.05 -136.77)"/><path id="path6891" class="cls-6" d="M41.59,140.78c0,1.49,1.52,2.7,3.39,2.7a3.42,3.42,0,0,0,3.2-1.82,2.11,2.11,0,0,0,1.47.31c1-.14.8-0.84,0.64-1.58-1.91.65-7.61,0.63-8.69,0.39h0Z" transform="translate(-41.05 -136.77)"/></g></g></g></g></svg>