<svg id="Layer_1" data-name="Layer 1" xmlns="http://www.w3.org/2000/svg" viewBox="0 0 24.37 7.79"><defs><style>.cls-1{fill:#fff;}</style></defs><title>yun1</title><g id="layer1"><g id="g4975"><path id="rect4977" class="cls-1" d="M42.62,37.24H34.8c-1.75,0-3.17.94-3.17,2.09h0c0,1.16,1.42,2.09,3.17,2.09h7.82c1.75,0,3.17-.94,3.17-2.09h0C45.79,38.17,44.37,37.24,42.62,37.24Z" transform="translate(-21.43 -34.42)"/><path id="rect4979" class="cls-1" d="M37.77,34.42H29.94c-1.75,0-3.17.94-3.17,2.09h0c0,1.16,1.42,2.09,3.17,2.09h7.82c1.75,0,3.17-.94,3.17-2.09h0C40.94,35.36,39.52,34.42,37.77,34.42Z" transform="translate(-21.43 -34.42)"/><path id="rect4981" class="cls-1" d="M32.42,38H24.6c-1.75,0-3.17.94-3.17,2.09h0c0,1.16,1.42,2.09,3.17,2.09h7.82c1.75,0,3.17-.94,3.17-2.09h0C35.59,39,34.17,38,32.42,38Z" transform="translate(-21.43 -34.42)"/></g></g></svg>