<svg id="Layer_1" data-name="Layer 1" xmlns="http://www.w3.org/2000/svg" viewBox="0 0 34.05 16.47"><defs><style>.cls-1{fill:#fff;}</style></defs><title>yun2</title><g id="layer1"><g id="g4983"><path id="rect4985" class="cls-1" d="M94.63,33.89h10.93A4.43,4.43,0,0,1,110,38.32h0a4.43,4.43,0,0,1-4.43,4.43H94.63a4.43,4.43,0,0,1-4.43-4.43h0A4.43,4.43,0,0,1,94.63,33.89Z" transform="translate(-90.2 -27.94)"/><path id="rect4987" class="cls-1" d="M101.41,27.94h10.93a4.43,4.43,0,0,1,4.43,4.43h0a4.43,4.43,0,0,1-4.43,4.43H101.41A4.43,4.43,0,0,1,97,32.36h0A4.43,4.43,0,0,1,101.41,27.94Z" transform="translate(-90.2 -27.94)"/><path id="rect4989" class="cls-1" d="M108.88,35.55h10.93A4.43,4.43,0,0,1,124.24,40h0a4.43,4.43,0,0,1-4.43,4.43H108.88A4.43,4.43,0,0,1,104.45,40h0A4.43,4.43,0,0,1,108.88,35.55Z" transform="translate(-90.2 -27.94)"/></g></g></svg>