<svg id="final_artwork" data-name="final artwork" xmlns="http://www.w3.org/2000/svg" viewBox="0 0 96.75 47.76"><defs><style>.cls-1{fill:#860610;}</style></defs><title>yun3</title><path class="cls-1" d="M346.57,348.71l-0.32-3.6c-0.61-6.94-4.77-19.67-16-21.3-1.52-9.25-8.05-22.86-25.05-22.86-16.17,0-24.38,10.23-27.33,17.54-0.57-.05-1.19-0.08-1.85-0.08-3.93,0-12.87,1.32-15,13-5,1.59-11.62,5.83-11.2,14.18l0.16,3.14h96.57Zm-82-11.39,2.53-.42,0.22-2.55c0.55-6.27,3.39-9.31,8.67-9.31a13.36,13.36,0,0,1,3.19.38l3.31,0.95,0.83-3.35c0.16-.63,4-15.44,21.85-15.44,17.37,0,18.73,18.78,18.78,19.58l0.18,3.23,3.23-.11c7.53-.25,10.53,7.17,11.66,11.82H257.08C259,338.35,264.3,337.36,264.57,337.32Z" transform="translate(-249.82 -300.95)"/></svg>