<svg id="Layer_1" data-name="Layer 1" xmlns="http://www.w3.org/2000/svg" viewBox="0 0 29.38 46.85"><defs><style>.cls-1{fill:#4e261c;}</style></defs><title>zhiwu4</title><path class="cls-1" d="M332.11,100.19v2.22a2.09,2.09,0,0,1-1.59,2v-7h-1.2v7a2.09,2.09,0,0,1-1.7-2.05V99.62h-1.2v2.79a3.28,3.28,0,0,0,2.89,3.25v0.56a2.61,2.61,0,0,1-2.61,2.61h-1.28V95.11h-1.2v4.37a1.57,1.57,0,0,1-1-1.46V90.55H322V98a2.77,2.77,0,0,0,2.19,2.7v11.06h-1.44a2.15,2.15,0,0,1-2.14-2.14V106.1h-1.2v3.54a3.34,3.34,0,0,0,3.34,3.34h1.44v10.77h1.2V110h1.28a3.81,3.81,0,0,0,3.81-3.81v-0.57a3.29,3.29,0,0,0,2.79-3.24v-2.22h-1.2Z" transform="translate(-303.92 -76.89)"/><path class="cls-1" d="M320.57,83.47v0.45A2.54,2.54,0,0,1,318,86.46H318V83h-1.2v7.82a3.84,3.84,0,0,1-3.29,3.78V84.67h-1.2V86.9a2.66,2.66,0,0,1-2.09-2.6V81.82a3.26,3.26,0,0,0,2.69-3.21V78h-1.2v0.63a2.06,2.06,0,0,1-1.5,2V78H309V84.3c0,0.13,0,.24,0,0.37h-0.63a3.28,3.28,0,0,1-3.24-2.81,2.72,2.72,0,0,0,2.49-2.7V76.89h-1.2v2.26a1.51,1.51,0,0,1-1.35,1.48V79h-1.2v2.39a4.49,4.49,0,0,0,4.49,4.49h0.94a3.87,3.87,0,0,0,3,2.23v12.72h-3.6a2.11,2.11,0,0,1-2.1-2.07,2.5,2.5,0,0,0,1.91-2.42V92.64h-1.2v3.68a1.29,1.29,0,0,1-.72,1.14V95.73h-1.2v3a3.31,3.31,0,0,0,3.3,3.3h3.6v14.4h1.2v-11a5.23,5.23,0,0,0,5.08-5.22V98.22h-1.2v1.94a4,4,0,0,1-3.89,4V95.78a5,5,0,0,0,4.49-5V87.66H318a3.74,3.74,0,0,0,3.74-3.74V83.47h-1.2Z" transform="translate(-303.92 -76.89)"/></svg>