<svg xmlns="http://www.w3.org/2000/svg" viewBox="0 0 43.8 64.35"><defs><style>.cls-1{isolation:isolate;}.cls-2{fill:#1cb753;}.cls-3{fill:#fff;opacity:0.3;mix-blend-mode:soft-light;}.cls-4{fill:#ff592c;}</style></defs><title>zhiwu1</title><g class="cls-1"><g id="objects"><path class="cls-2" d="M109.33,607.12c2.7,0,3.9,1.17,3.9,2.62s-1.2,2.62-3.9,2.62-5.9-2.62-5.9-2.62S106.62,607.12,109.33,607.12Z" transform="translate(-95.09 -564.49)"/><path class="cls-3" d="M103.43,609.73h9.8c0,1.45-1.2,2.62-3.9,2.62S103.43,609.73,103.43,609.73Z" transform="translate(-95.09 -564.49)"/><rect class="cls-2" x="24.46" y="9.15" width="0.98" height="55.2"/><rect class="cls-2" x="109.94" y="592.19" width="0.98" height="27.6" transform="translate(-490.89 -309.43) rotate(-44.94)"/><rect class="cls-2" x="117.3" y="586.98" width="17.77" height="0.98" transform="translate(-473.19 -303.74) rotate(-44.94)"/><rect class="cls-2" x="113.4" y="578.55" width="0.98" height="17.77" transform="translate(-476.88 -312.26) rotate(-44.96)"/><rect class="cls-2" x="117.59" y="609.24" width="17.77" height="0.98" transform="translate(-489.07 -296.66) rotate(-44.98)"/><path class="cls-2" d="M108.93,597.52c0.19,2.7-.89,4-2.33,4.08s-2.69-1-2.89-3.71,2.19-6.07,2.19-6.07S108.74,594.82,108.93,597.52Z" transform="translate(-95.09 -564.49)"/><path class="cls-3" d="M105.91,591.83l0.69,9.78c-1.44.1-2.69-1-2.89-3.71S105.91,591.83,105.91,591.83Z" transform="translate(-95.09 -564.49)"/><path class="cls-2" d="M116.19,604.78c0.19,2.7-.89,4-2.33,4.08s-2.69-1-2.89-3.71,2.19-6.07,2.19-6.07S116,602.08,116.19,604.78Z" transform="translate(-95.09 -564.49)"/><path class="cls-3" d="M113.16,599.08l0.7,9.78c-1.44.1-2.69-1-2.89-3.71S113.16,599.08,113.16,599.08Z" transform="translate(-95.09 -564.49)"/><path class="cls-2" d="M136.2,580.92c-1.82,2-3.49,2.11-4.56,1.14s-1.13-2.64.68-4.65,5.9-2.61,5.9-2.61S138,578.92,136.2,580.92Z" transform="translate(-95.09 -564.49)"/><path class="cls-3" d="M138.22,574.8l-6.58,7.26c-1.07-1-1.13-2.64.68-4.65S138.22,574.8,138.22,574.8Z" transform="translate(-95.09 -564.49)"/><path class="cls-2" d="M136.87,602.84c-1.82,2-3.49,2.11-4.56,1.13s-1.13-2.64.68-4.65,5.9-2.61,5.9-2.61S138.68,600.84,136.87,602.84Z" transform="translate(-95.09 -564.49)"/><path class="cls-3" d="M138.89,596.72L132.31,604c-1.07-1-1.13-2.64.68-4.65S138.89,596.72,138.89,596.72Z" transform="translate(-95.09 -564.49)"/><path class="cls-2" d="M122.56,570.35c0,2.71-1.11,3.92-2.56,3.94s-2.63-1.16-2.68-3.86,2.52-5.94,2.52-5.94S122.52,567.64,122.56,570.35Z" transform="translate(-95.09 -564.49)"/><path class="cls-3" d="M119.85,564.49l0.15,9.8c-1.44,0-2.63-1.16-2.68-3.86S119.85,564.49,119.85,564.49Z" transform="translate(-95.09 -564.49)"/><path class="cls-2" d="M118.41,576.89c1.94,1.88,2,3.56,1,4.59s-2.68,1-4.62-.84-2.41-6-2.41-6S116.47,575,118.41,576.89Z" transform="translate(-95.09 -564.49)"/><path class="cls-3" d="M112.36,574.67l7,6.82c-1,1-2.68,1-4.62-.84S112.36,574.67,112.36,574.67Z" transform="translate(-95.09 -564.49)"/><path class="cls-2" d="M112.16,587.54c2.7-.07,3.93,1.08,4,2.52s-1.13,2.64-3.84,2.71-6-2.47-6-2.47S109.46,587.6,112.16,587.54Z" transform="translate(-95.09 -564.49)"/><path class="cls-3" d="M106.33,590.29l9.8-.23c0,1.44-1.13,2.64-3.84,2.71S106.33,590.29,106.33,590.29Z" transform="translate(-95.09 -564.49)"/><path class="cls-2" d="M107.54,577.84c1.94,1.88,2,3.56,1,4.59s-2.68,1-4.62-.84-2.41-6-2.41-6S105.6,576,107.54,577.84Z" transform="translate(-95.09 -564.49)"/><path class="cls-3" d="M101.49,575.62l7,6.82c-1,1-2.68,1-4.62-.84S101.49,575.62,101.49,575.62Z" transform="translate(-95.09 -564.49)"/><path class="cls-2" d="M129.08,582.42c0.13,2.7-1,4-2.42,4s-2.67-1.07-2.8-3.77,2.32-6,2.32-6S128.95,579.71,129.08,582.42Z" transform="translate(-95.09 -564.49)"/><path class="cls-3" d="M126.18,576.66l0.48,9.79c-1.44.07-2.67-1.07-2.8-3.77S126.18,576.66,126.18,576.66Z" transform="translate(-95.09 -564.49)"/><path class="cls-2" d="M129.08,605.7c0.13,2.7-1,4-2.42,4s-2.67-1.07-2.8-3.77,2.32-6,2.32-6S128.95,603,129.08,605.7Z" transform="translate(-95.09 -564.49)"/><path class="cls-3" d="M126.18,599.94l0.48,9.79c-1.44.07-2.67-1.07-2.8-3.77S126.18,599.94,126.18,599.94Z" transform="translate(-95.09 -564.49)"/><path class="cls-2" d="M128.23,592.67c-2.7.13-4-1-4-2.42s1.07-2.67,3.77-2.8,6,2.32,6,2.32S130.93,592.53,128.23,592.67Z" transform="translate(-95.09 -564.49)"/><path class="cls-3" d="M134,589.77l-9.79.48c-0.07-1.44,1.07-2.67,3.77-2.8S134,589.77,134,589.77Z" transform="translate(-95.09 -564.49)"/><path class="cls-2" d="M130.69,612.8c-2.7.13-4-1-4-2.42s1.07-2.67,3.77-2.8,6,2.32,6,2.32S133.39,612.66,130.69,612.8Z" transform="translate(-95.09 -564.49)"/><path class="cls-3" d="M136.45,609.89l-9.79.48c-0.07-1.44,1.07-2.67,3.77-2.8S136.45,609.89,136.45,609.89Z" transform="translate(-95.09 -564.49)"/><path class="cls-2" d="M101,592.63c1.83,2,1.78,3.67.71,4.64s-2.74.89-4.57-1.1-2.06-6.11-2.06-6.11S99.18,590.64,101,592.63Z" transform="translate(-95.09 -564.49)"/><path class="cls-3" d="M95.09,590.06l6.63,7.22c-1.06,1-2.74.89-4.57-1.1S95.09,590.06,95.09,590.06Z" transform="translate(-95.09 -564.49)"/><circle class="cls-4" cx="14.2" cy="17.98" r="1.67"/><circle class="cls-4" cx="21.14" cy="24.93" r="1.67"/><circle class="cls-4" cx="11.51" cy="37.83" r="1.67"/><circle class="cls-4" cx="31.83" cy="21.96" r="1.67"/><circle class="cls-4" cx="31.57" cy="45.24" r="1.67"/><circle class="cls-4" cx="18.49" cy="44.74" r="1.67"/><circle class="cls-4" cx="24.75" cy="10.18" r="1.67"/></g></g></svg>