<svg xmlns="http://www.w3.org/2000/svg" viewBox="0 0 72.08 105.91"><defs><style>.cls-1{isolation:isolate;}.cls-2{fill:#baba1d;}.cls-3{fill:#fff;opacity:0.3;mix-blend-mode:soft-light;}.cls-4{fill:#ff592c;}</style></defs><title>zhiwu3</title><g class="cls-1"><g id="objects"><path class="cls-2" d="M284.34,638.08c4.45,0,6.42,1.93,6.42,4.3s-2,4.31-6.42,4.31-9.71-4.31-9.71-4.31S279.89,638.08,284.34,638.08Z" transform="translate(-260.91 -567.92)"/><path class="cls-3" d="M274.64,642.38h16.13c0,2.38-2,4.31-6.42,4.31S274.64,642.38,274.64,642.38Z" transform="translate(-260.91 -567.92)"/><rect class="cls-2" x="40.26" y="15.06" width="1.62" height="90.85"/><rect class="cls-2" x="285.35" y="613.5" width="1.62" height="45.43" transform="translate(-626.98 -179.21) rotate(-45)"/><rect class="cls-2" x="297.46" y="604.93" width="29.25" height="1.62" transform="translate(-597.83 -169.83) rotate(-45)"/><rect class="cls-2" x="291.04" y="591.06" width="1.62" height="29.25" transform="translate(-603.62 -184.44) rotate(-44.97)"/><rect class="cls-2" x="297.93" y="641.57" width="29.25" height="1.62" transform="translate(-623.69 -158.5) rotate(-45.02)"/><path class="cls-2" d="M283.69,622.29c0.32,4.44-1.47,6.54-3.84,6.71s-4.43-1.66-4.75-6.1,3.61-10,3.61-10S283.38,617.84,283.69,622.29Z" transform="translate(-260.91 -567.92)"/><path class="cls-3" d="M278.71,612.91L279.85,629c-2.37.17-4.43-1.66-4.75-6.1S278.71,612.91,278.71,612.91Z" transform="translate(-260.91 -567.92)"/><path class="cls-2" d="M295.63,634.22c0.32,4.44-1.47,6.54-3.84,6.71s-4.43-1.66-4.75-6.1,3.61-10,3.61-10S295.31,629.78,295.63,634.22Z" transform="translate(-260.91 -567.92)"/><path class="cls-3" d="M290.65,624.85l1.14,16.09c-2.37.17-4.43-1.66-4.75-6.1S290.65,624.85,290.65,624.85Z" transform="translate(-260.91 -567.92)"/><path class="cls-2" d="M328.57,595c-3,3.3-5.74,3.46-7.5,1.87s-1.87-4.35,1.12-7.65,9.71-4.3,9.71-4.3S331.56,591.66,328.57,595Z" transform="translate(-260.91 -567.92)"/><path class="cls-3" d="M331.9,584.88l-10.83,11.95c-1.76-1.6-1.87-4.35,1.12-7.65S331.9,584.88,331.9,584.88Z" transform="translate(-260.91 -567.92)"/><path class="cls-2" d="M329.66,631c-3,3.3-5.74,3.47-7.5,1.87s-1.87-4.35,1.12-7.65S333,621,333,621,332.65,627.74,329.66,631Z" transform="translate(-260.91 -567.92)"/><path class="cls-3" d="M333,621l-10.83,11.95c-1.76-1.6-1.87-4.35,1.12-7.65S333,621,333,621Z" transform="translate(-260.91 -567.92)"/><path class="cls-2" d="M306.12,577.56c0.07,4.45-1.83,6.45-4.2,6.49s-4.34-1.9-4.41-6.35,4.15-9.77,4.15-9.77S306,573.1,306.12,577.56Z" transform="translate(-260.91 -567.92)"/><path class="cls-3" d="M301.66,567.92L301.92,584c-2.38,0-4.34-1.9-4.41-6.35S301.66,567.92,301.66,567.92Z" transform="translate(-260.91 -567.92)"/><path class="cls-2" d="M299.29,588.33c3.2,3.1,3.27,5.85,1.62,7.56s-4.41,1.72-7.61-1.38-4-9.84-4-9.84S296.09,585.23,299.29,588.33Z" transform="translate(-260.91 -567.92)"/><path class="cls-3" d="M289.33,584.67l11.58,11.22c-1.66,1.71-4.41,1.72-7.61-1.38S289.33,584.67,289.33,584.67Z" transform="translate(-260.91 -567.92)"/><path class="cls-2" d="M289,605.85c4.45-.11,6.47,1.77,6.52,4.15s-1.87,4.35-6.32,4.46-9.81-4.07-9.81-4.07S284.55,606,289,605.85Z" transform="translate(-260.91 -567.92)"/><path class="cls-3" d="M279.41,610.39l16.12-.39c0.06,2.38-1.87,4.35-6.32,4.46S279.41,610.39,279.41,610.39Z" transform="translate(-260.91 -567.92)"/><path class="cls-2" d="M281.4,589.9c3.2,3.1,3.27,5.85,1.62,7.56s-4.41,1.72-7.61-1.38-4-9.84-4-9.84S278.2,586.8,281.4,589.9Z" transform="translate(-260.91 -567.92)"/><path class="cls-3" d="M271.43,586.23L283,597.46c-1.65,1.71-4.41,1.72-7.61-1.38S271.43,586.23,271.43,586.23Z" transform="translate(-260.91 -567.92)"/><path class="cls-2" d="M316.85,597.42c0.22,4.45-1.61,6.51-4,6.63s-4.4-1.76-4.62-6.2,3.82-9.9,3.82-9.9S316.63,593,316.85,597.42Z" transform="translate(-260.91 -567.92)"/><path class="cls-3" d="M312.08,587.94L312.87,604c-2.38.12-4.4-1.76-4.62-6.2S312.08,587.94,312.08,587.94Z" transform="translate(-260.91 -567.92)"/><path class="cls-2" d="M316.85,635.75c0.22,4.45-1.61,6.51-4,6.63s-4.4-1.76-4.62-6.21,3.82-9.9,3.82-9.9S316.63,631.3,316.85,635.75Z" transform="translate(-260.91 -567.92)"/><path class="cls-3" d="M312.08,626.27l0.79,16.11c-2.38.12-4.4-1.76-4.62-6.21S312.08,626.27,312.08,626.27Z" transform="translate(-260.91 -567.92)"/><path class="cls-2" d="M315.44,614.29c-4.45.22-6.51-1.61-6.63-4s1.76-4.4,6.2-4.62,9.9,3.83,9.9,3.83S319.89,614.07,315.44,614.29Z" transform="translate(-260.91 -567.92)"/><path class="cls-3" d="M324.92,609.52l-16.11.79c-0.12-2.37,1.76-4.4,6.2-4.62S324.92,609.52,324.92,609.52Z" transform="translate(-260.91 -567.92)"/><path class="cls-2" d="M319.49,647.42c-4.45.22-6.51-1.61-6.62-4s1.76-4.4,6.2-4.62,9.91,3.82,9.91,3.82S323.94,647.2,319.49,647.42Z" transform="translate(-260.91 -567.92)"/><path class="cls-3" d="M329,642.64l-16.11.79c-0.12-2.37,1.76-4.4,6.2-4.62S329,642.64,329,642.64Z" transform="translate(-260.91 -567.92)"/><path class="cls-2" d="M270.65,614.23c3,3.28,2.93,6,1.17,7.64s-4.5,1.46-7.52-1.82S260.91,610,260.91,610,267.63,611,270.65,614.23Z" transform="translate(-260.91 -567.92)"/><path class="cls-3" d="M260.91,610l10.91,11.88c-1.75,1.61-4.5,1.46-7.52-1.82S260.91,610,260.91,610Z" transform="translate(-260.91 -567.92)"/><circle class="cls-4" cx="40.83" cy="17.44" r="3.09"/><circle class="cls-4" cx="34.75" cy="41.38" r="2.11"/><circle class="cls-4" cx="61.1" cy="65.17" r="1.35"/><circle class="cls-4" cx="51.95" cy="73.95" r="2.11"/><circle class="cls-4" cx="18.5" cy="61.99" r="2.93"/><circle class="cls-4" cx="22.1" cy="28.42" r="2.93"/><circle class="cls-4" cx="48.14" cy="41.38" r="2.93"/></g></g></svg>