<svg xmlns="http://www.w3.org/2000/svg" viewBox="0 0 56.04 82.34"><defs><style>.cls-1{isolation:isolate;}.cls-2{fill:#1cb753;}.cls-3{fill:#fff;opacity:0.3;mix-blend-mode:soft-light;}</style></defs><title>zhiwu2</title><g class="cls-1"><g id="objects"><path class="cls-2" d="M174.41,611.25c3.46,0,5,1.5,5,3.35s-1.53,3.35-5,3.35-7.55-3.35-7.55-3.35S170.94,611.25,174.41,611.25Z" transform="translate(-156.19 -556.71)"/><path class="cls-3" d="M166.86,614.6H179.4c0,1.85-1.53,3.35-5,3.35S166.86,614.6,166.86,614.6Z" transform="translate(-156.19 -556.71)"/><rect class="cls-2" x="31.3" y="11.71" width="1.26" height="70.64"/><rect class="cls-2" x="175.19" y="592.14" width="1.26" height="35.32" transform="translate(-535.98 -253.63) rotate(-45.02)"/><rect class="cls-2" x="184.6" y="585.48" width="22.74" height="1.26" transform="translate(-513.09 -246.75) rotate(-44.97)"/><rect class="cls-2" x="179.61" y="574.7" width="1.26" height="22.74" transform="translate(-517.73 -257.76) rotate(-44.98)"/><rect class="cls-2" x="184.97" y="613.97" width="22.74" height="1.26" transform="translate(-533.25 -237.89) rotate(-45)"/><path class="cls-2" d="M173.9,599c0.25,3.45-1.14,5.09-3,5.22s-3.45-1.29-3.69-4.74,2.8-7.76,2.8-7.76S173.66,595.52,173.9,599Z" transform="translate(-156.19 -556.71)"/><path class="cls-3" d="M170,591.69l0.89,12.51c-1.84.13-3.45-1.29-3.69-4.74S170,591.69,170,591.69Z" transform="translate(-156.19 -556.71)"/><path class="cls-2" d="M183.18,608.26c0.25,3.45-1.14,5.09-3,5.22s-3.45-1.29-3.69-4.74,2.8-7.76,2.8-7.76S182.94,604.8,183.18,608.26Z" transform="translate(-156.19 -556.71)"/><path class="cls-3" d="M179.31,601l0.89,12.51c-1.84.13-3.45-1.29-3.69-4.74S179.31,601,179.31,601Z" transform="translate(-156.19 -556.71)"/><path class="cls-2" d="M208.79,577.73c-2.32,2.57-4.46,2.69-5.83,1.45s-1.45-3.38.87-5.95,7.55-3.34,7.55-3.34S211.12,575.17,208.79,577.73Z" transform="translate(-156.19 -556.71)"/><path class="cls-3" d="M211.38,569.89L203,579.18c-1.37-1.24-1.45-3.38.87-5.95S211.38,569.89,211.38,569.89Z" transform="translate(-156.19 -556.71)"/><path class="cls-2" d="M209.64,605.78c-2.32,2.57-4.46,2.69-5.83,1.45s-1.45-3.38.87-5.95,7.55-3.34,7.55-3.34S212,603.22,209.64,605.78Z" transform="translate(-156.19 -556.71)"/><path class="cls-3" d="M212.23,597.95l-8.42,9.29c-1.37-1.24-1.45-3.38.87-5.95S212.23,597.95,212.23,597.95Z" transform="translate(-156.19 -556.71)"/><path class="cls-2" d="M191.34,564.2c0.05,3.46-1.42,5-3.27,5s-3.37-1.48-3.43-4.94,3.23-7.6,3.23-7.6S191.28,560.74,191.34,564.2Z" transform="translate(-156.19 -556.71)"/><path class="cls-3" d="M187.87,556.71l0.2,12.54c-1.85,0-3.37-1.48-3.43-4.94S187.87,556.71,187.87,556.71Z" transform="translate(-156.19 -556.71)"/><path class="cls-2" d="M186,572.58c2.49,2.41,2.54,4.55,1.26,5.88s-3.43,1.34-5.91-1.07-3.09-7.65-3.09-7.65S183.54,570.17,186,572.58Z" transform="translate(-156.19 -556.71)"/><path class="cls-3" d="M178.28,569.73l9,8.73c-1.29,1.33-3.43,1.34-5.91-1.07S178.28,569.73,178.28,569.73Z" transform="translate(-156.19 -556.71)"/><path class="cls-2" d="M178,586.2c3.46-.08,5,1.38,5.07,3.23s-1.45,3.38-4.91,3.47-7.62-3.17-7.62-3.17S174.57,586.28,178,586.2Z" transform="translate(-156.19 -556.71)"/><path class="cls-3" d="M170.57,589.72l12.54-.3c0,1.85-1.45,3.38-4.91,3.47S170.57,589.72,170.57,589.72Z" transform="translate(-156.19 -556.71)"/><path class="cls-2" d="M172.12,573.79c2.49,2.41,2.54,4.55,1.26,5.88s-3.43,1.34-5.92-1.07-3.09-7.65-3.09-7.65S169.63,571.38,172.12,573.79Z" transform="translate(-156.19 -556.71)"/><path class="cls-3" d="M164.37,570.95l9,8.73c-1.29,1.33-3.43,1.34-5.92-1.07S164.37,570.95,164.37,570.95Z" transform="translate(-156.19 -556.71)"/><path class="cls-2" d="M199.68,579.65c0.17,3.46-1.25,5.06-3.1,5.15s-3.42-1.37-3.59-4.82,3-7.7,3-7.7S199.51,576.19,199.68,579.65Z" transform="translate(-156.19 -556.71)"/><path class="cls-3" d="M196,572.27l0.61,12.52c-1.85.09-3.42-1.37-3.59-4.82S196,572.27,196,572.27Z" transform="translate(-156.19 -556.71)"/><path class="cls-2" d="M199.68,609.44c0.17,3.46-1.25,5.06-3.1,5.15s-3.42-1.37-3.59-4.82,3-7.7,3-7.7S199.51,606,199.68,609.44Z" transform="translate(-156.19 -556.71)"/><path class="cls-3" d="M196,602.07l0.61,12.52c-1.85.09-3.42-1.37-3.59-4.82S196,602.07,196,602.07Z" transform="translate(-156.19 -556.71)"/><path class="cls-2" d="M198.59,592.76c-3.46.17-5.06-1.25-5.15-3.1s1.37-3.42,4.82-3.59,7.7,3,7.7,3S202,592.59,198.59,592.76Z" transform="translate(-156.19 -556.71)"/><path class="cls-3" d="M206,589l-12.52.61c-0.09-1.85,1.37-3.42,4.82-3.59S206,589,206,589Z" transform="translate(-156.19 -556.71)"/><path class="cls-2" d="M201.73,618.52c-3.46.17-5.06-1.25-5.15-3.1s1.37-3.42,4.82-3.59,7.7,3,7.7,3S205.19,618.35,201.73,618.52Z" transform="translate(-156.19 -556.71)"/><path class="cls-3" d="M209.11,614.8l-12.52.62c-0.09-1.85,1.37-3.42,4.82-3.59S209.11,614.8,209.11,614.8Z" transform="translate(-156.19 -556.71)"/><path class="cls-2" d="M163.76,592.71c2.34,2.55,2.27,4.69.91,5.94s-3.5,1.14-5.84-1.41-2.64-7.82-2.64-7.82S161.42,590.16,163.76,592.71Z" transform="translate(-156.19 -556.71)"/><path class="cls-3" d="M156.19,589.42l8.48,9.23c-1.36,1.25-3.5,1.14-5.84-1.41S156.19,589.42,156.19,589.42Z" transform="translate(-156.19 -556.71)"/></g></g></svg>