<svg xmlns="http://www.w3.org/2000/svg" viewBox="0 0 549 37.85"><defs><style>.cls-1{fill:#85d333;}.cls-2{fill:#5a9614;}</style></defs><title>caodi</title><g id="图层_2" data-name="图层 2"><g id="图层_1-2" data-name="图层 1"><g id="Design"><path class="cls-1" d="M0,15.73s53.62-30.15,106.18-7c0,0,33-8.38,60.69-3.24,0,0,25-10,47,0,0,0,42.24-1.61,59.87,2.19,0,0,43.67-16.81,85.5,0a261.21,261.21,0,0,1,45.81,0s44.16-14.54,73.53,0c0,0,33.39,1.13,70.39,4.16v12.6L0,28.89Z"/><path class="cls-2" d="M549,24.68s-53.74-30.15-106.29-7c0,0-33.06-8.38-60.75-3.24,0,0-25-10-47.06,0,0,0-42.25-4.61-59.89-.81,0,0-43.68-13.81-85.51,3a261.26,261.26,0,0,0-45.81,0s-44-14.54-73.42,0c0,0-33.27,1.13-70.27,4.16v12.6l549,4.48Z"/></g></g></g></svg>