<svg xmlns="http://www.w3.org/2000/svg" viewBox="0 0 137.48 101.08"><defs><style>.cls-1{fill:#ac162c;}.cls-2{fill:#e14741;}.cls-3{fill:#cf0a2c;}.cls-4{fill:#1e252b;}</style></defs><title>jianzhu</title><g id="图层_2" data-name="图层 2"><g id="图层_1-2" data-name="图层 1"><g id="Design"><polygon class="cls-1" points="110.6 36.52 26.88 36.52 23.28 29.73 114.2 29.73 110.6 36.52"/><rect class="cls-2" x="32.35" y="18.4" width="10.88" height="79.48"/><rect class="cls-2" x="21.08" y="61.33" width="5.44" height="39.74"/><rect class="cls-3" x="27.66" y="16.12" width="20.26" height="4.57"/><rect class="cls-4" x="31.17" y="81.96" width="13.24" height="19.11"/><rect class="cls-2" x="94.25" y="18.4" width="10.88" height="79.48"/><rect class="cls-3" x="89.56" y="16.12" width="20.26" height="4.57"/><polygon class="cls-1" points="114.2 16.12 23.28 16.12 15.88 9.32 121.6 9.32 114.2 16.12"/><path class="cls-4" d="M68.74,4.69A519.64,519.64,0,0,1,0,0L7.4,9.32H130.08L137.48,0A519.63,519.63,0,0,1,68.74,4.69"/><path class="cls-4" d="M43.22,31.19H32.35a1.47,1.47,0,1,1,0-2.94H43.22a1.47,1.47,0,0,1,0,2.94"/><path class="cls-4" d="M105.13,31.19H94.25a1.47,1.47,0,0,1,0-2.94h10.88a1.47,1.47,0,0,1,0,2.94"/><polygon class="cls-1" points="46.02 58.27 16.01 58.27 18.17 61.27 46.02 61.27 46.02 58.27"/><rect class="cls-2" x="110.76" y="61.33" width="5.44" height="39.74"/><rect class="cls-4" x="92.88" y="81.96" width="13.24" height="19.11"/><polygon class="cls-1" points="92.02 58.27 121.28 58.27 119.11 61.27 92.02 61.27 92.02 58.27"/></g></g></g></svg>