<svg xmlns="http://www.w3.org/2000/svg" viewBox="0 0 760.8 217.49"><defs><style>.cls-1{fill:#08659a;}.cls-1,.cls-2{fill-rule:evenodd;}.cls-2{fill:#035072;}</style></defs><title>shan</title><g id="图层_2" data-name="图层 2"><g id="图层_1-2" data-name="图层 1"><g id="Design"><path class="cls-1" d="M261.83,80.45C192.4,135.53,0,217.49,0,217.49H760.8L727,201.7l-33.83-17.62-31.89-3.75s-29.13-4.94-42.73,0l-24.47-28.69s-18.49,19.78-44,4.28c0,0-31.54-20.4-38.06-35.11,0,0-27.73-10.51-44-30.82,0,0-18.76-8.76-30.18-28.37,5.21,15.05-44.63-28.85-18.21-16.45,0,0-21.55-18.29-38-35,0,0-7.44-9.07-12.79-10.17,0,0-10.16,8.72-24.3,1,0,0-4.69-.37-12.05,11.67,0,0-42.31,47.06-54.49,53.62,0,0-12.55,9.75-16.1,13.85M383.08,55l0,.18Z"/><path class="cls-2" d="M94.37,217.49S171.78,197.68,195,160c0,0-.54,16.11-9.79,35s17.94-35.73,32.63-39.23,22.84-3.5,25.56,7.71c0,0-27.19,1.4-21.21,16.81,0,0-25.56,1.4-13.05,11.91,0,0,31.54,13.31,34.26,25.22Z"/><path class="cls-2" d="M287.78,216.71s12.64-8.81,17.13-31.07c0,0-7.34-25.85,7.34-36.67,0,0-9-2.41,6.93,17.56,0,0-7.75,5.25-9.38,1.05s-5.71,13.52,20.8,18.06,17.54.33,19.17-11.75,13.05,9.46,11,21.54-1.22,6.83,17.54,8.41,15.5,1.05,15.91,7.36,17.13,6.3,17.13,6.3Z"/><path class="cls-2" d="M494.71,217.49s-18.37-14.71-20.82-16.81,25.71-38.88,10.41-60.95c-6.87,38.88-29.17,38.88-29.17,38.88S447,171,448.61,153.78c0,0-17.95-3.71-27.73-18.86,0,0-1.63,27.62,22.84,48.27,0,0-23.65,18.54-30.18,34.31Z"/><path class="cls-2" d="M619.08,216.49s-27.73-24.94-27.73-40.39c0,0-6.53-8.71-6.53,9.49,0,0-49.1,2.67-62.8-31.83,0,0-.82,17.38,34.26,40.5l-17.13,22.24Z"/></g></g></g></svg>