<svg xmlns="http://www.w3.org/2000/svg" xmlns:xlink="http://www.w3.org/1999/xlink" viewBox="0 0 89.13 88.55"><defs><style>.cls-1{fill:none;}.cls-2{fill:#939598;}.cls-3{fill:#808285;}.cls-4{fill:#89756e;}.cls-5{fill:#7d6358;}.cls-6{clip-path:url(#clip-path);}.cls-7{fill:#66463b;}.cls-8{clip-path:url(#clip-path-2);}.cls-9{fill:#39842c;}.cls-10{fill:#3fae2a;}.cls-11{fill:#549b48;}.cls-12{fill:#6cc04a;}</style><clipPath id="clip-path"><rect class="cls-1" x="51.41" y="21.47" width="4.52" height="7.22"/></clipPath><clipPath id="clip-path-2"><rect class="cls-1" x="20.93" y="45.64" width="15.14" height="18.94"/></clipPath></defs><title>zhiwu</title><g id="图层_2" data-name="图层 2"><g id="图层_1-2" data-name="图层 1"><g id="Design"><polygon class="cls-2" points="33.84 85.8 58.08 85.8 64.89 65.66 33.84 65.66 2.8 65.66 9.61 85.8 33.84 85.8"/><rect class="cls-3" y="64.58" width="67.69" height="2.17"/><rect class="cls-3" x="11.44" y="85.8" width="4.71" height="2.75"/><rect class="cls-3" x="51.54" y="85.8" width="4.71" height="2.75"/><path class="cls-4" d="M48.27,46a2.27,2.27,0,0,1-.57-.07C29,41.07,20.35,30.26,20.35,24.48a2.25,2.25,0,1,1,4.49,0c0,3.2,6.9,12.65,24,17.09A2.25,2.25,0,0,1,48.27,46"/><path class="cls-5" d="M20.93,64.58c0-4,3.57-12.91,11.11-16.94C38.87,44,52,40.18,52,21.47h4s-1.06,14-2.91,19.8c-2.3,7.29-18.24,16.57-18.24,23.3"/><g class="cls-6"><path class="cls-7" d="M52,21.47a33,33,0,0,1-.55,6.22,9.14,9.14,0,0,0,3.82,1c.46-4,.7-7.22.7-7.22Z"/></g><path class="cls-4" d="M44.17,46.78c3.87,1.11,25.74-4,25.74-9.66,0,0,2.65-4.76,2.65-1.63,0,10.24-22.37,17.74-29.63,15.66-2.49-.71-1.55-5.18,1.24-4.38"/><g class="cls-8"><path class="cls-7" d="M32,47.64c-7.54,4-11.11,12.9-11.11,16.94h3.22c0-3.34.68-12.26,11.92-18.94-1.46.72-2.84,1.36-4,2"/></g><path class="cls-9" d="M38.1,19.82a2.71,2.71,0,0,0-1.56.49,3.89,3.89,0,0,0-5-3.32,4.7,4.7,0,0,0-5.16-2.6,6.35,6.35,0,0,0-10.88.92,4.76,4.76,0,0,0-6,1.59,3.14,3.14,0,0,0-.86-.13,3.24,3.24,0,0,0-1,6.32c0,.09,0,.18,0,.28a3.25,3.25,0,0,0,3.25,3.25,3.21,3.21,0,0,0,.89-.14A6.35,6.35,0,0,0,22.63,29a4.72,4.72,0,0,0,7.49-.66,3.92,3.92,0,0,0,2.51.92,3.82,3.82,0,0,0,3.92-4.43,2.73,2.73,0,1,0,1.56-5Z"/><path class="cls-10" d="M38.1,18.7a2.7,2.7,0,0,0-1.56.49,4,4,0,0,0-3.92-3.5,3.89,3.89,0,0,0-1.12.18,4.69,4.69,0,0,0-5.16-2.6,6.35,6.35,0,0,0-10.88.92,4.76,4.76,0,0,0-6,1.59,3.18,3.18,0,0,0-.86-.13,3.24,3.24,0,0,0-1,6.32c0,.09,0,.18,0,.28a3.2,3.2,0,0,0,4.13,3.11,6.35,6.35,0,0,0,10.94,2.47,4.72,4.72,0,0,0,7.49-.65,3.95,3.95,0,0,0,6.47-3.05,4,4,0,0,0,0-.46,2.73,2.73,0,1,0,1.56-5Z"/><path class="cls-9" d="M86.9,34.21a2.21,2.21,0,0,0-1.27.4,3.17,3.17,0,0,0-4.12-2.71A3.86,3.86,0,0,0,78,29.71a3.81,3.81,0,0,0-.73.07,5.18,5.18,0,0,0-8.88.75,3.88,3.88,0,0,0-1.7-.4,3.92,3.92,0,0,0-3.23,1.7A2.64,2.64,0,0,0,62,36.89c0,.07,0,.15,0,.23a2.65,2.65,0,0,0,2.65,2.65,2.61,2.61,0,0,0,.72-.11,5.18,5.18,0,0,0,8.93,2,3.85,3.85,0,0,0,6.11-.53,3.2,3.2,0,0,0,2,.75,3.12,3.12,0,0,0,3.2-3.61,2.23,2.23,0,1,0,1.27-4.06Z"/><path class="cls-10" d="M86.9,33.3a2.22,2.22,0,0,0-1.27.4,3.23,3.23,0,0,0-3.2-2.85,3.17,3.17,0,0,0-.92.15A3.86,3.86,0,0,0,78,28.79a3.81,3.81,0,0,0-.73.07,5.18,5.18,0,0,0-8.88.75,3.87,3.87,0,0,0-1.7-.4,3.92,3.92,0,0,0-3.23,1.7,2.59,2.59,0,0,0-.7-.11A2.64,2.64,0,0,0,62,36c0,.08,0,.15,0,.23a2.61,2.61,0,0,0,3.37,2.54,5.18,5.18,0,0,0,8.93,2,3.85,3.85,0,0,0,6.11-.54,3.2,3.2,0,0,0,2,.75,3.12,3.12,0,0,0,3.2-3.62,2.21,2.21,0,0,0,1.27.4,2.23,2.23,0,1,0,0-4.46Z"/><path class="cls-11" d="M75.51,10.32l-.43,0a5.45,5.45,0,0,0-7.23-2.15,6.69,6.69,0,0,0-7.22-3A9.19,9.19,0,0,0,46.93,3.38a6.73,6.73,0,0,0-9.81,4.93,5.07,5.07,0,0,0-5.46,1.17,5.09,5.09,0,0,0-4.58,4.2,3.6,3.6,0,0,0,.33,7.18h.18a6.52,6.52,0,0,0,8.53,3.3,7.43,7.43,0,0,0,8.66-.6,6.72,6.72,0,0,0,8.19.59,9.2,9.2,0,0,0,12.57-.34A6.64,6.64,0,0,0,75,20.48l.47,0a5.09,5.09,0,0,0,0-10.19"/><path class="cls-12" d="M75.51,9.2l-.43,0a5.45,5.45,0,0,0-7.23-2.15,6.69,6.69,0,0,0-7.22-3A9.19,9.19,0,0,0,46.93,2.26a6.73,6.73,0,0,0-9.81,4.93,5.07,5.07,0,0,0-5.46,1.17,5.09,5.09,0,0,0-4.58,4.2,3.6,3.6,0,0,0,.33,7.18h.18A6.52,6.52,0,0,0,36.12,23a7.43,7.43,0,0,0,8.66-.6A6.72,6.72,0,0,0,53,23a9.2,9.2,0,0,0,12.57-.34A6.64,6.64,0,0,0,75,19.36l.47,0a5.09,5.09,0,0,0,0-10.19"/></g></g></g></svg>