<svg xmlns="http://www.w3.org/2000/svg" viewBox="0 0 39.02 59.29"><defs><style>.cls-1{fill:#d2cda7;}.cls-1,.cls-2,.cls-3,.cls-4,.cls-5{fill-rule:evenodd;}.cls-2{fill:#fcfaed;}.cls-3,.cls-6{fill:#b02510;}.cls-4{fill:#fcb200;}.cls-5{fill:#ffdf94;}.cls-7{fill:#54523c;}</style></defs><title>猫</title><g id="图层_2" data-name="图层 2"><g id="图层_1-2" data-name="图层 1"><g id="Design"><path class="cls-1" d="M18.07,4.12s-1.79-5-5.1-4S8.84,10,8.84,10L7.35,11.58s-4.41-.74-6,.74-.73,6-.73,6S-.74,25.55.55,30A22.62,22.62,0,0,0,4,37.14S.18,45.59,3.67,51.2,12.32,58.55,15,58.55a9.49,9.49,0,0,0,4.5-1.1s1.38,1.84,4.87,1.84a6.23,6.23,0,0,0,5.15-2.76s3.86,1.66,6.07-.92,4.6-6.43,2.85-13.14S36,33.64,36.22,32.72a9,9,0,0,0,.37-2.57,4.25,4.25,0,0,0-1.19-2.57,15,15,0,0,0,3.31-8c.37-4.69-1.29-7.17-1.29-7.17s1.56-6.8-.18-8.55-7.45,1.65-7.45,1.65a29.7,29.7,0,0,0-6.25-1.38,38.47,38.47,0,0,0-5.46,0"/><path class="cls-2" d="M3.4,12.13c1.93,0,3.13,1.2,2.94,2.85S.46,17.1.92,14.8,2.2,12.32,3.4,12.13"/><path class="cls-2" d="M22.38,28.31c6.81,0,12.36-4.75,12.36-10.57S29.19,7.17,22.38,7.17,10,11.92,10,17.74s5.55,10.57,12.36,10.57"/><path class="cls-2" d="M3.4,21.14c1.66,0,2.57,1.65,3.13,3.13s-1.38,6.9-3,6.9S-.09,21,3.4,21.14"/><path class="cls-2" d="M7.63,33.27a40.32,40.32,0,0,0-3.4,6.07c-.28.92-1.65,2.76-.09,5.42a23.55,23.55,0,0,0,7.54,7.08c1.93.92.64,5.15,3,5.15s4.69-.73,4.69-2.85-1.65-2.21-1.65-2.21-4.32-5.88-2.39-4.41,2.39,3.4,3.77,3.4a12.07,12.07,0,0,0,3.22-.64S19,55.06,22.79,56s5.06.37,4.78-2.11S29.6,46,31.8,42s3-5.79,2.85-7.72-23-1.38-24.08-2.39-1.47-.55-2.94,1.38"/><path class="cls-2" d="M36.86,43.57c1.75.18.92,6,0,7.17s-1.75,4.5-4,4-3.4-2.94-1.38-3.68,2.85-8.46,5.42-7.45"/><path class="cls-3" d="M35.39,27.58c-3,2.94-5.61,4.87-13.42,4.41S11.67,29.6,8.82,26.56A3.13,3.13,0,0,0,7.63,29a7.62,7.62,0,0,0,.83,3.4S10.75,37,21.23,37c9.39,0,13.09-2.29,15-4a1.8,1.8,0,0,1,0-.37,9,9,0,0,0,.37-2.57,4.25,4.25,0,0,0-1.19-2.57"/><path class="cls-4" d="M20.5,44.58a5.15,5.15,0,1,0-5.15-5.15,5.16,5.16,0,0,0,5.15,5.15"/><path class="cls-5" d="M20.5,42.19A3.49,3.49,0,1,0,17,38.7a3.5,3.5,0,0,0,3.49,3.49"/><path class="cls-4" d="M12.73,33.46a1,1,0,1,0-1-1,1,1,0,0,0,1,1"/><path class="cls-4" d="M16.22,34.56a1,1,0,1,0-1-1,1,1,0,0,0,1,1"/><path class="cls-4" d="M26.7,35.2a1,1,0,1,0-1-1,1,1,0,0,0,1,1"/><path class="cls-4" d="M30.29,34.47a1,1,0,1,0-1-1,1,1,0,0,0,1,1"/><path class="cls-3" d="M13.05,1.47c2.21-.46,3.4,1.65,4,2.76S11.95,8.45,11.58,7s-.64-5.33,1.47-5.51"/><path class="cls-3" d="M36.31,4.87c1.84,1,.73,4.69,0,5.88S30.24,7.9,32.17,6.43s3.4-2,4.14-1.56"/><path class="cls-6" d="M23.28,18.49a3,3,0,0,0,.44,1.13,1.33,1.33,0,0,0,1,.6,2,2,0,0,0,.49,0,.31.31,0,0,1,.1.61,2.6,2.6,0,0,1-.64,0A1.93,1.93,0,0,1,23.21,20a3,3,0,0,1-.37-.73,2.25,2.25,0,0,1-.46.4,4.26,4.26,0,0,1-2.35.52.31.31,0,0,1,0-.62,3.73,3.73,0,0,0,2-.42,1.59,1.59,0,0,0,.59-.71c0-.15,0-.3-.05-.45a.9.9,0,0,1-.71-.83,1.08,1.08,0,0,1,2.11,0,.87.87,0,0,1-.57.78,3.4,3.4,0,0,1-.14.57"/><path class="cls-7" d="M13.21,14.24a.31.31,0,0,1-.5-.37,4.17,4.17,0,0,1,2.74-1.57,5.56,5.56,0,0,1,2,0,4.25,4.25,0,0,1,1.69.7,2.24,2.24,0,0,1,1,1.44.31.31,0,0,1-.61.1,1.64,1.64,0,0,0-.7-1,3.58,3.58,0,0,0-1.44-.59,5,5,0,0,0-1.76,0,3.56,3.56,0,0,0-2.34,1.32"/><path class="cls-7" d="M26.35,15.72a.31.31,0,0,1-.5-.37,4.18,4.18,0,0,1,2.74-1.57,5.63,5.63,0,0,1,2,0,4.24,4.24,0,0,1,1.69.7,2.25,2.25,0,0,1,.95,1.44.31.31,0,1,1-.61.1,1.64,1.64,0,0,0-.71-1,3.6,3.6,0,0,0-1.44-.59,5,5,0,0,0-1.76,0,3.56,3.56,0,0,0-2.34,1.33"/><path class="cls-7" d="M1.43,15a.31.31,0,0,1,.62,0c0,.32,0,.62,0,.9A5.17,5.17,0,0,0,2,17.4a.31.31,0,1,1-.61.12,5.72,5.72,0,0,1,0-1.69c0-.27,0-.54,0-.85"/><path class="cls-7" d="M3.26,15a.31.31,0,1,1,.62,0c0,.32,0,.62,0,.9a5.24,5.24,0,0,0,0,1.52.31.31,0,1,1-.61.12,5.72,5.72,0,0,1,0-1.69c0-.27,0-.54,0-.85"/><path class="cls-7" d="M4.86,14.72a.31.31,0,0,1,.62,0c0,.32,0,.62,0,.9a5.19,5.19,0,0,0,0,1.52.31.31,0,0,1-.61.12,5.66,5.66,0,0,1,0-1.69c0-.27,0-.54,0-.85"/><path class="cls-7" d="M8.45,21.41a.31.31,0,0,1,0-.62l.83,0a13.78,13.78,0,0,0,3,0,.31.31,0,0,1,.11.61,14.14,14.14,0,0,1-3.17,0l-.82,0"/><path class="cls-7" d="M7.81,18.33a.31.31,0,1,1,.35-.51,4.77,4.77,0,0,0,1.63.73,8.07,8.07,0,0,0,1.86.17.31.31,0,1,1,0,.62,8.6,8.6,0,0,1-2-.19,5.39,5.39,0,0,1-1.84-.82"/><path class="cls-7" d="M8.62,16.4a.31.31,0,0,1-.17-.4.31.31,0,0,1,.4-.17,6.25,6.25,0,0,1,.77.4,3.6,3.6,0,0,0,2.21.69.31.31,0,0,1,.34.27.31.31,0,0,1-.27.34,4.1,4.1,0,0,1-2.6-.77,5.69,5.69,0,0,0-.69-.37"/><path class="cls-7" d="M13.36,7.86a.31.31,0,0,1,.62,0,3.77,3.77,0,0,0,.23,1.41,1.33,1.33,0,0,0,.49.73.31.31,0,0,1-.25.57,1.86,1.86,0,0,1-.81-1.08,4.38,4.38,0,0,1-.27-1.66"/><path class="cls-7" d="M16,6.83a.31.31,0,0,1,.62.07c0,.19-.05.38-.08.58h0c-.11.74-.24,1.58,0,1.81a.31.31,0,0,1-.44.44c-.45-.45-.3-1.45-.17-2.34h0c0-.2.06-.4.08-.56"/><path class="cls-7" d="M31.26,9.3a.31.31,0,1,1,.61-.08A10.08,10.08,0,0,1,32,10.66a2.61,2.61,0,0,1-.26,1.12.31.31,0,1,1-.56-.26,2,2,0,0,0,.2-.87,10,10,0,0,0-.12-1.35"/><path class="cls-7" d="M33.44,11a.31.31,0,1,1,.62,0c0,1.53-.29,1.66-.78,1.9l-.22.12a.31.31,0,0,1-.32-.53l.27-.14c.27-.13.43-.21.43-1.35"/><path class="cls-7" d="M33.74,19.87a.31.31,0,1,1,0-.62l.56,0a5.68,5.68,0,0,0,2.38-.16.31.31,0,1,1,.38.48c-.51.41-1.91.34-2.8.3l-.53,0"/><path class="cls-7" d="M32.72,22a.31.31,0,1,1,.14-.6,8.25,8.25,0,0,0,2,.1,6.52,6.52,0,0,0,1.8-.3.31.31,0,1,1,.22.58,7.15,7.15,0,0,1-2,.34A8.8,8.8,0,0,1,32.72,22"/><path class="cls-7" d="M32,23.13a.31.31,0,0,1,.42-.45,3,3,0,0,0,1.51.57,7,7,0,0,0,2.3,0,.31.31,0,0,1,.13.6,7.71,7.71,0,0,1-2.53,0A3.55,3.55,0,0,1,32,23.13"/></g></g></g></svg>